<?xml version="1.0" encoding="utf-8" standalone="no"?>
<!DOCTYPE svg PUBLIC "-//W3C//DTD SVG 1.1//EN"
  "http://www.w3.org/Graphics/SVG/1.1/DTD/svg11.dtd">
<svg xmlns:xlink="http://www.w3.org/1999/xlink" width="460.8pt" height="345.6pt" viewBox="0 0 460.8 345.6" xmlns="http://www.w3.org/2000/svg" version="1.1">
 <metadata>
  <rdf:RDF xmlns:dc="http://purl.org/dc/elements/1.1/" xmlns:cc="http://creativecommons.org/ns#" xmlns:rdf="http://www.w3.org/1999/02/22-rdf-syntax-ns#">
   <cc:Work>
    <dc:type rdf:resource="http://purl.org/dc/dcmitype/StillImage"/>
    <dc:date>2023-11-04T16:21:28.366190</dc:date>
    <dc:format>image/svg+xml</dc:format>
    <dc:creator>
     <cc:Agent>
      <dc:title>Matplotlib v3.8.0, https://matplotlib.org/</dc:title>
     </cc:Agent>
    </dc:creator>
   </cc:Work>
  </rdf:RDF>
 </metadata>
 <defs>
  <style type="text/css">*{stroke-linejoin: round; stroke-linecap: butt}</style>
 </defs>
 <g id="figure_1">
  <g id="patch_1">
   <path d="M 0 345.6 
L 460.8 345.6 
L 460.8 0 
L 0 0 
z
" style="fill: #ffffff"/>
  </g>
  <g id="axes_1">
   <g id="patch_2">
    <path d="M 62.3 134.26 
L 221.76 134.26 
L 221.76 10.8 
L 62.3 10.8 
z
" style="fill: #ffffff"/>
   </g>
   <g id="PolyCollection_1">
    <defs>
     <path id="m21420ef743" d="M 62.427568 -329.188182 
L 62.427568 -216.951818 
L 62.512613 -216.951818 
L 62.512613 -329.188182 
L 62.512613 -329.188182 
L 62.427568 -329.188182 
z
" style="stroke: #ffeeaa"/>
    </defs>
    <g clip-path="url(#p3dae7b9e35)">
     <use xlink:href="#m21420ef743" x="0" y="345.6" style="fill: #ffeeaa; stroke: #ffeeaa"/>
    </g>
   </g>
   <g id="matplotlib.axis_1">
    <g id="xtick_1">
     <g id="line2d_1">
      <path d="M 62.3 134.26 
L 62.3 10.8 
" clip-path="url(#p3dae7b9e35)" style="fill: none; stroke: #808080; stroke-width: 0.8; stroke-linecap: square"/>
     </g>
     <g id="line2d_2">
      <defs>
       <path id="m99013d89cc" d="M 0 0 
L 0 3.5 
" style="stroke: #000000; stroke-width: 0.8"/>
      </defs>
      <g>
       <use xlink:href="#m99013d89cc" x="62.3" y="134.26" style="stroke: #000000; stroke-width: 0.8"/>
      </g>
     </g>
     <g id="text_1">
      <!-- 0 -->
      <g transform="translate(59.11875 148.858437) scale(0.1 -0.1)">
       <defs>
        <path id="DejaVuSans-30" d="M 2034 4250 
Q 1547 4250 1301 3770 
Q 1056 3291 1056 2328 
Q 1056 1369 1301 889 
Q 1547 409 2034 409 
Q 2525 409 2770 889 
Q 3016 1369 3016 2328 
Q 3016 3291 2770 3770 
Q 2525 4250 2034 4250 
z
M 2034 4750 
Q 2819 4750 3233 4129 
Q 3647 3509 3647 2328 
Q 3647 1150 3233 529 
Q 2819 -91 2034 -91 
Q 1250 -91 836 529 
Q 422 1150 422 2328 
Q 422 3509 836 4129 
Q 1250 4750 2034 4750 
z
" transform="scale(0.015625)"/>
       </defs>
       <use xlink:href="#DejaVuSans-30"/>
      </g>
     </g>
    </g>
    <g id="xtick_2">
     <g id="line2d_3">
      <path d="M 115.453333 134.26 
L 115.453333 10.8 
" clip-path="url(#p3dae7b9e35)" style="fill: none; stroke: #808080; stroke-width: 0.8; stroke-linecap: square"/>
     </g>
     <g id="line2d_4">
      <g>
       <use xlink:href="#m99013d89cc" x="115.453333" y="134.26" style="stroke: #000000; stroke-width: 0.8"/>
      </g>
     </g>
     <g id="text_2">
      <!-- 50 -->
      <g transform="translate(109.090833 148.858437) scale(0.1 -0.1)">
       <defs>
        <path id="DejaVuSans-35" d="M 691 4666 
L 3169 4666 
L 3169 4134 
L 1269 4134 
L 1269 2991 
Q 1406 3038 1543 3061 
Q 1681 3084 1819 3084 
Q 2600 3084 3056 2656 
Q 3513 2228 3513 1497 
Q 3513 744 3044 326 
Q 2575 -91 1722 -91 
Q 1428 -91 1123 -41 
Q 819 9 494 109 
L 494 744 
Q 775 591 1075 516 
Q 1375 441 1709 441 
Q 2250 441 2565 725 
Q 2881 1009 2881 1497 
Q 2881 1984 2565 2268 
Q 2250 2553 1709 2553 
Q 1456 2553 1204 2497 
Q 953 2441 691 2322 
L 691 4666 
z
" transform="scale(0.015625)"/>
       </defs>
       <use xlink:href="#DejaVuSans-35"/>
       <use xlink:href="#DejaVuSans-30" x="63.623047"/>
      </g>
     </g>
    </g>
    <g id="xtick_3">
     <g id="line2d_5">
      <path d="M 168.606667 134.26 
L 168.606667 10.8 
" clip-path="url(#p3dae7b9e35)" style="fill: none; stroke: #808080; stroke-width: 0.8; stroke-linecap: square"/>
     </g>
     <g id="line2d_6">
      <g>
       <use xlink:href="#m99013d89cc" x="168.606667" y="134.26" style="stroke: #000000; stroke-width: 0.8"/>
      </g>
     </g>
     <g id="text_3">
      <!-- 100 -->
      <g transform="translate(159.062917 148.858437) scale(0.1 -0.1)">
       <defs>
        <path id="DejaVuSans-31" d="M 794 531 
L 1825 531 
L 1825 4091 
L 703 3866 
L 703 4441 
L 1819 4666 
L 2450 4666 
L 2450 531 
L 3481 531 
L 3481 0 
L 794 0 
L 794 531 
z
" transform="scale(0.015625)"/>
       </defs>
       <use xlink:href="#DejaVuSans-31"/>
       <use xlink:href="#DejaVuSans-30" x="63.623047"/>
       <use xlink:href="#DejaVuSans-30" x="127.246094"/>
      </g>
     </g>
    </g>
    <g id="xtick_4">
     <g id="line2d_7">
      <path d="M 221.76 134.26 
L 221.76 10.8 
" clip-path="url(#p3dae7b9e35)" style="fill: none; stroke: #808080; stroke-width: 0.8; stroke-linecap: square"/>
     </g>
     <g id="line2d_8">
      <g>
       <use xlink:href="#m99013d89cc" x="221.76" y="134.26" style="stroke: #000000; stroke-width: 0.8"/>
      </g>
     </g>
     <g id="text_4">
      <!-- 150 -->
      <g transform="translate(212.21625 148.858437) scale(0.1 -0.1)">
       <use xlink:href="#DejaVuSans-31"/>
       <use xlink:href="#DejaVuSans-35" x="63.623047"/>
       <use xlink:href="#DejaVuSans-30" x="127.246094"/>
      </g>
     </g>
    </g>
    <g id="text_5">
     <!-- Samples -->
     <g transform="translate(120.676875 162.536562) scale(0.1 -0.1)">
      <defs>
       <path id="DejaVuSans-53" d="M 3425 4513 
L 3425 3897 
Q 3066 4069 2747 4153 
Q 2428 4238 2131 4238 
Q 1616 4238 1336 4038 
Q 1056 3838 1056 3469 
Q 1056 3159 1242 3001 
Q 1428 2844 1947 2747 
L 2328 2669 
Q 3034 2534 3370 2195 
Q 3706 1856 3706 1288 
Q 3706 609 3251 259 
Q 2797 -91 1919 -91 
Q 1588 -91 1214 -16 
Q 841 59 441 206 
L 441 856 
Q 825 641 1194 531 
Q 1563 422 1919 422 
Q 2459 422 2753 634 
Q 3047 847 3047 1241 
Q 3047 1584 2836 1778 
Q 2625 1972 2144 2069 
L 1759 2144 
Q 1053 2284 737 2584 
Q 422 2884 422 3419 
Q 422 4038 858 4394 
Q 1294 4750 2059 4750 
Q 2388 4750 2728 4690 
Q 3069 4631 3425 4513 
z
" transform="scale(0.015625)"/>
       <path id="DejaVuSans-61" d="M 2194 1759 
Q 1497 1759 1228 1600 
Q 959 1441 959 1056 
Q 959 750 1161 570 
Q 1363 391 1709 391 
Q 2188 391 2477 730 
Q 2766 1069 2766 1631 
L 2766 1759 
L 2194 1759 
z
M 3341 1997 
L 3341 0 
L 2766 0 
L 2766 531 
Q 2569 213 2275 61 
Q 1981 -91 1556 -91 
Q 1019 -91 701 211 
Q 384 513 384 1019 
Q 384 1609 779 1909 
Q 1175 2209 1959 2209 
L 2766 2209 
L 2766 2266 
Q 2766 2663 2505 2880 
Q 2244 3097 1772 3097 
Q 1472 3097 1187 3025 
Q 903 2953 641 2809 
L 641 3341 
Q 956 3463 1253 3523 
Q 1550 3584 1831 3584 
Q 2591 3584 2966 3190 
Q 3341 2797 3341 1997 
z
" transform="scale(0.015625)"/>
       <path id="DejaVuSans-6d" d="M 3328 2828 
Q 3544 3216 3844 3400 
Q 4144 3584 4550 3584 
Q 5097 3584 5394 3201 
Q 5691 2819 5691 2113 
L 5691 0 
L 5113 0 
L 5113 2094 
Q 5113 2597 4934 2840 
Q 4756 3084 4391 3084 
Q 3944 3084 3684 2787 
Q 3425 2491 3425 1978 
L 3425 0 
L 2847 0 
L 2847 2094 
Q 2847 2600 2669 2842 
Q 2491 3084 2119 3084 
Q 1678 3084 1418 2786 
Q 1159 2488 1159 1978 
L 1159 0 
L 581 0 
L 581 3500 
L 1159 3500 
L 1159 2956 
Q 1356 3278 1631 3431 
Q 1906 3584 2284 3584 
Q 2666 3584 2933 3390 
Q 3200 3197 3328 2828 
z
" transform="scale(0.015625)"/>
       <path id="DejaVuSans-70" d="M 1159 525 
L 1159 -1331 
L 581 -1331 
L 581 3500 
L 1159 3500 
L 1159 2969 
Q 1341 3281 1617 3432 
Q 1894 3584 2278 3584 
Q 2916 3584 3314 3078 
Q 3713 2572 3713 1747 
Q 3713 922 3314 415 
Q 2916 -91 2278 -91 
Q 1894 -91 1617 61 
Q 1341 213 1159 525 
z
M 3116 1747 
Q 3116 2381 2855 2742 
Q 2594 3103 2138 3103 
Q 1681 3103 1420 2742 
Q 1159 2381 1159 1747 
Q 1159 1113 1420 752 
Q 1681 391 2138 391 
Q 2594 391 2855 752 
Q 3116 1113 3116 1747 
z
" transform="scale(0.015625)"/>
       <path id="DejaVuSans-6c" d="M 603 4863 
L 1178 4863 
L 1178 0 
L 603 0 
L 603 4863 
z
" transform="scale(0.015625)"/>
       <path id="DejaVuSans-65" d="M 3597 1894 
L 3597 1613 
L 953 1613 
Q 991 1019 1311 708 
Q 1631 397 2203 397 
Q 2534 397 2845 478 
Q 3156 559 3463 722 
L 3463 178 
Q 3153 47 2828 -22 
Q 2503 -91 2169 -91 
Q 1331 -91 842 396 
Q 353 884 353 1716 
Q 353 2575 817 3079 
Q 1281 3584 2069 3584 
Q 2775 3584 3186 3129 
Q 3597 2675 3597 1894 
z
M 3022 2063 
Q 3016 2534 2758 2815 
Q 2500 3097 2075 3097 
Q 1594 3097 1305 2825 
Q 1016 2553 972 2059 
L 3022 2063 
z
" transform="scale(0.015625)"/>
       <path id="DejaVuSans-73" d="M 2834 3397 
L 2834 2853 
Q 2591 2978 2328 3040 
Q 2066 3103 1784 3103 
Q 1356 3103 1142 2972 
Q 928 2841 928 2578 
Q 928 2378 1081 2264 
Q 1234 2150 1697 2047 
L 1894 2003 
Q 2506 1872 2764 1633 
Q 3022 1394 3022 966 
Q 3022 478 2636 193 
Q 2250 -91 1575 -91 
Q 1294 -91 989 -36 
Q 684 19 347 128 
L 347 722 
Q 666 556 975 473 
Q 1284 391 1588 391 
Q 1994 391 2212 530 
Q 2431 669 2431 922 
Q 2431 1156 2273 1281 
Q 2116 1406 1581 1522 
L 1381 1569 
Q 847 1681 609 1914 
Q 372 2147 372 2553 
Q 372 3047 722 3315 
Q 1072 3584 1716 3584 
Q 2034 3584 2315 3537 
Q 2597 3491 2834 3397 
z
" transform="scale(0.015625)"/>
      </defs>
      <use xlink:href="#DejaVuSans-53"/>
      <use xlink:href="#DejaVuSans-61" x="63.476562"/>
      <use xlink:href="#DejaVuSans-6d" x="124.755859"/>
      <use xlink:href="#DejaVuSans-70" x="222.167969"/>
      <use xlink:href="#DejaVuSans-6c" x="285.644531"/>
      <use xlink:href="#DejaVuSans-65" x="313.427734"/>
      <use xlink:href="#DejaVuSans-73" x="374.951172"/>
     </g>
    </g>
   </g>
   <g id="matplotlib.axis_2">
    <g id="ytick_1">
     <g id="line2d_9">
      <path d="M 62.3 119.696554 
L 221.76 119.696554 
" clip-path="url(#p3dae7b9e35)" style="fill: none; stroke: #808080; stroke-width: 0.8; stroke-linecap: square"/>
     </g>
     <g id="line2d_10">
      <defs>
       <path id="m7b93ee9252" d="M 0 0 
L -3.5 0 
" style="stroke: #000000; stroke-width: 0.8"/>
      </defs>
      <g>
       <use xlink:href="#m7b93ee9252" x="62.3" y="119.696554" style="stroke: #000000; stroke-width: 0.8"/>
      </g>
     </g>
     <g id="text_6">
      <!-- −0.05 -->
      <g transform="translate(24.654688 123.495773) scale(0.1 -0.1)">
       <defs>
        <path id="DejaVuSans-2212" d="M 678 2272 
L 4684 2272 
L 4684 1741 
L 678 1741 
L 678 2272 
z
" transform="scale(0.015625)"/>
        <path id="DejaVuSans-2e" d="M 684 794 
L 1344 794 
L 1344 0 
L 684 0 
L 684 794 
z
" transform="scale(0.015625)"/>
       </defs>
       <use xlink:href="#DejaVuSans-2212"/>
       <use xlink:href="#DejaVuSans-30" x="83.789062"/>
       <use xlink:href="#DejaVuSans-2e" x="147.412109"/>
       <use xlink:href="#DejaVuSans-30" x="179.199219"/>
       <use xlink:href="#DejaVuSans-35" x="242.822266"/>
      </g>
     </g>
    </g>
    <g id="ytick_2">
     <g id="line2d_11">
      <path d="M 62.3 94.460732 
L 221.76 94.460732 
" clip-path="url(#p3dae7b9e35)" style="fill: none; stroke: #808080; stroke-width: 0.8; stroke-linecap: square"/>
     </g>
     <g id="line2d_12">
      <g>
       <use xlink:href="#m7b93ee9252" x="62.3" y="94.460732" style="stroke: #000000; stroke-width: 0.8"/>
      </g>
     </g>
     <g id="text_7">
      <!-- 0.00 -->
      <g transform="translate(33.034375 98.259951) scale(0.1 -0.1)">
       <use xlink:href="#DejaVuSans-30"/>
       <use xlink:href="#DejaVuSans-2e" x="63.623047"/>
       <use xlink:href="#DejaVuSans-30" x="95.410156"/>
       <use xlink:href="#DejaVuSans-30" x="159.033203"/>
      </g>
     </g>
    </g>
    <g id="ytick_3">
     <g id="line2d_13">
      <path d="M 62.3 69.224911 
L 221.76 69.224911 
" clip-path="url(#p3dae7b9e35)" style="fill: none; stroke: #808080; stroke-width: 0.8; stroke-linecap: square"/>
     </g>
     <g id="line2d_14">
      <g>
       <use xlink:href="#m7b93ee9252" x="62.3" y="69.224911" style="stroke: #000000; stroke-width: 0.8"/>
      </g>
     </g>
     <g id="text_8">
      <!-- 0.05 -->
      <g transform="translate(33.034375 73.02413) scale(0.1 -0.1)">
       <use xlink:href="#DejaVuSans-30"/>
       <use xlink:href="#DejaVuSans-2e" x="63.623047"/>
       <use xlink:href="#DejaVuSans-30" x="95.410156"/>
       <use xlink:href="#DejaVuSans-35" x="159.033203"/>
      </g>
     </g>
    </g>
    <g id="ytick_4">
     <g id="line2d_15">
      <path d="M 62.3 43.989089 
L 221.76 43.989089 
" clip-path="url(#p3dae7b9e35)" style="fill: none; stroke: #808080; stroke-width: 0.8; stroke-linecap: square"/>
     </g>
     <g id="line2d_16">
      <g>
       <use xlink:href="#m7b93ee9252" x="62.3" y="43.989089" style="stroke: #000000; stroke-width: 0.8"/>
      </g>
     </g>
     <g id="text_9">
      <!-- 0.10 -->
      <g transform="translate(33.034375 47.788308) scale(0.1 -0.1)">
       <use xlink:href="#DejaVuSans-30"/>
       <use xlink:href="#DejaVuSans-2e" x="63.623047"/>
       <use xlink:href="#DejaVuSans-31" x="95.410156"/>
       <use xlink:href="#DejaVuSans-30" x="159.033203"/>
      </g>
     </g>
    </g>
    <g id="ytick_5">
     <g id="line2d_17">
      <path d="M 62.3 18.753268 
L 221.76 18.753268 
" clip-path="url(#p3dae7b9e35)" style="fill: none; stroke: #808080; stroke-width: 0.8; stroke-linecap: square"/>
     </g>
     <g id="line2d_18">
      <g>
       <use xlink:href="#m7b93ee9252" x="62.3" y="18.753268" style="stroke: #000000; stroke-width: 0.8"/>
      </g>
     </g>
     <g id="text_10">
      <!-- 0.15 -->
      <g transform="translate(33.034375 22.552487) scale(0.1 -0.1)">
       <use xlink:href="#DejaVuSans-30"/>
       <use xlink:href="#DejaVuSans-2e" x="63.623047"/>
       <use xlink:href="#DejaVuSans-31" x="95.410156"/>
       <use xlink:href="#DejaVuSans-35" x="159.033203"/>
      </g>
     </g>
    </g>
    <g id="text_11">
     <!-- Amplitude -->
     <g transform="translate(18.575 98.152656) rotate(-90) scale(0.1 -0.1)">
      <defs>
       <path id="DejaVuSans-41" d="M 2188 4044 
L 1331 1722 
L 3047 1722 
L 2188 4044 
z
M 1831 4666 
L 2547 4666 
L 4325 0 
L 3669 0 
L 3244 1197 
L 1141 1197 
L 716 0 
L 50 0 
L 1831 4666 
z
" transform="scale(0.015625)"/>
       <path id="DejaVuSans-69" d="M 603 3500 
L 1178 3500 
L 1178 0 
L 603 0 
L 603 3500 
z
M 603 4863 
L 1178 4863 
L 1178 4134 
L 603 4134 
L 603 4863 
z
" transform="scale(0.015625)"/>
       <path id="DejaVuSans-74" d="M 1172 4494 
L 1172 3500 
L 2356 3500 
L 2356 3053 
L 1172 3053 
L 1172 1153 
Q 1172 725 1289 603 
Q 1406 481 1766 481 
L 2356 481 
L 2356 0 
L 1766 0 
Q 1100 0 847 248 
Q 594 497 594 1153 
L 594 3053 
L 172 3053 
L 172 3500 
L 594 3500 
L 594 4494 
L 1172 4494 
z
" transform="scale(0.015625)"/>
       <path id="DejaVuSans-75" d="M 544 1381 
L 544 3500 
L 1119 3500 
L 1119 1403 
Q 1119 906 1312 657 
Q 1506 409 1894 409 
Q 2359 409 2629 706 
Q 2900 1003 2900 1516 
L 2900 3500 
L 3475 3500 
L 3475 0 
L 2900 0 
L 2900 538 
Q 2691 219 2414 64 
Q 2138 -91 1772 -91 
Q 1169 -91 856 284 
Q 544 659 544 1381 
z
M 1991 3584 
L 1991 3584 
z
" transform="scale(0.015625)"/>
       <path id="DejaVuSans-64" d="M 2906 2969 
L 2906 4863 
L 3481 4863 
L 3481 0 
L 2906 0 
L 2906 525 
Q 2725 213 2448 61 
Q 2172 -91 1784 -91 
Q 1150 -91 751 415 
Q 353 922 353 1747 
Q 353 2572 751 3078 
Q 1150 3584 1784 3584 
Q 2172 3584 2448 3432 
Q 2725 3281 2906 2969 
z
M 947 1747 
Q 947 1113 1208 752 
Q 1469 391 1925 391 
Q 2381 391 2643 752 
Q 2906 1113 2906 1747 
Q 2906 2381 2643 2742 
Q 2381 3103 1925 3103 
Q 1469 3103 1208 2742 
Q 947 2381 947 1747 
z
" transform="scale(0.015625)"/>
      </defs>
      <use xlink:href="#DejaVuSans-41"/>
      <use xlink:href="#DejaVuSans-6d" x="68.408203"/>
      <use xlink:href="#DejaVuSans-70" x="165.820312"/>
      <use xlink:href="#DejaVuSans-6c" x="229.296875"/>
      <use xlink:href="#DejaVuSans-69" x="257.080078"/>
      <use xlink:href="#DejaVuSans-74" x="284.863281"/>
      <use xlink:href="#DejaVuSans-75" x="324.072266"/>
      <use xlink:href="#DejaVuSans-64" x="387.451172"/>
      <use xlink:href="#DejaVuSans-65" x="450.927734"/>
     </g>
    </g>
   </g>
   <g id="line2d_19">
    <path d="M 62.3 88.422965 
L 63.363067 83.617267 
L 64.426133 75.238186 
L 65.4892 65.380575 
L 66.552267 53.058284 
L 67.615333 41.229046 
L 68.6784 31.217278 
L 69.741467 23.546596 
L 70.804533 21.513471 
L 71.8676 23.977816 
L 72.930667 32.603251 
L 73.993733 46.157674 
L 75.0568 63.031273 
L 76.119867 81.152587 
L 77.182933 98.095652 
L 78.246 111.711631 
L 79.309067 120.090824 
L 80.372133 123.048202 
L 81.4352 121.07664 
L 82.498267 114.669227 
L 83.561333 105.304346 
L 84.6244 95.53899 
L 85.687467 87.05214 
L 86.750533 81.152794 
L 87.8136 78.873176 
L 88.876667 80.167008 
L 89.939733 83.617133 
L 91.0028 89.038934 
L 92.065867 94.537218 
L 93.128933 99.019874 
L 94.192 102.254515 
L 95.255067 103.086247 
L 96.318133 102.477855 
L 97.3812 100.437037 
L 98.444267 97.54129 
L 99.507333 94.616717 
L 100.5704 92.516167 
L 101.633467 91.256953 
L 102.696533 90.979733 
L 103.7596 91.256958 
L 104.822667 92.057884 
L 105.885733 93.320936 
L 106.9488 94.298983 
L 108.011867 94.954037 
L 109.074933 95.261684 
L 110.138 95.169244 
L 111.201067 95.261682 
L 112.264133 95.046041 
" clip-path="url(#p3dae7b9e35)" style="fill: none; stroke: #000000; stroke-width: 1.5; stroke-linecap: square"/>
   </g>
   <g id="line2d_20">
    <path d="M 62.3 92.232265 
L 63.363067 89.589427 
L 64.426133 84.857338 
L 65.4892 78.062172 
L 66.552267 69.287299 
L 67.615333 59.022309 
L 68.6784 48.106995 
L 69.741467 37.756728 
L 70.804533 29.502177 
L 71.8676 24.591731 
L 72.930667 24.2752 
L 73.993733 29.057683 
L 75.0568 38.869451 
L 76.119867 52.769442 
L 77.182933 69.305838 
L 78.246 86.359077 
L 79.309067 101.918721 
L 80.372133 114.076388 
L 81.4352 121.46339 
L 82.498267 123.546529 
L 83.561333 120.618348 
L 84.6244 113.718872 
L 85.687467 104.584196 
L 86.750533 94.949443 
L 87.8136 86.633811 
L 88.876667 80.927393 
L 89.939733 78.470445 
L 91.0028 79.324091 
L 92.065867 82.866395 
L 93.128933 87.989509 
L 94.192 93.537464 
L 95.255067 98.366068 
L 96.318133 101.666806 
L 97.3812 103.093173 
L 98.444267 102.608761 
L 99.507333 100.684105 
L 100.5704 97.898537 
L 101.633467 94.930107 
L 102.696533 92.374144 
L 103.7596 90.629132 
L 104.822667 89.780743 
L 105.885733 89.838479 
L 106.9488 90.501248 
L 108.011867 91.499366 
L 109.074933 92.550735 
L 110.138 93.453899 
L 111.201067 94.138538 
L 112.264133 94.696876 
" clip-path="url(#p3dae7b9e35)" style="fill: none; stroke: #ff0000; stroke-width: 1.5; stroke-linecap: square"/>
   </g>
   <g id="patch_3">
    <path d="M 62.3 134.26 
L 62.3 10.8 
" style="fill: none; stroke: #000000; stroke-width: 0.8; stroke-linejoin: miter; stroke-linecap: square"/>
   </g>
   <g id="patch_4">
    <path d="M 221.76 134.26 
L 221.76 10.8 
" style="fill: none; stroke: #000000; stroke-width: 0.8; stroke-linejoin: miter; stroke-linecap: square"/>
   </g>
   <g id="patch_5">
    <path d="M 62.3 134.26 
L 221.76 134.26 
" style="fill: none; stroke: #000000; stroke-width: 0.8; stroke-linejoin: miter; stroke-linecap: square"/>
   </g>
   <g id="patch_6">
    <path d="M 62.3 10.8 
L 221.76 10.8 
" style="fill: none; stroke: #000000; stroke-width: 0.8; stroke-linejoin: miter; stroke-linecap: square"/>
   </g>
  </g>
  <g id="axes_2">
   <g id="patch_7">
    <path d="M 282.62 134.26 
L 442.08 134.26 
L 442.08 10.8 
L 282.62 10.8 
z
" style="fill: #ffffff"/>
   </g>
   <g id="PolyCollection_2">
    <defs>
     <path id="m0f8db01fb2" d="M 301.7552 -332.131992 
L 301.7552 -205.599828 
L 314.512 -205.599828 
L 314.512 -332.131992 
L 314.512 -332.131992 
L 301.7552 -332.131992 
z
" style="stroke: #ffeeaa"/>
    </defs>
    <g clip-path="url(#padcae5491c)">
     <use xlink:href="#m0f8db01fb2" x="0" y="345.6" style="fill: #ffeeaa; stroke: #ffeeaa"/>
    </g>
   </g>
   <g id="matplotlib.axis_3">
    <g id="xtick_5">
     <g id="line2d_21">
      <path d="M 282.62 134.26 
L 282.62 10.8 
" clip-path="url(#padcae5491c)" style="fill: none; stroke: #808080; stroke-width: 0.8; stroke-linecap: square"/>
     </g>
     <g id="line2d_22">
      <g>
       <use xlink:href="#m99013d89cc" x="282.62" y="134.26" style="stroke: #000000; stroke-width: 0.8"/>
      </g>
     </g>
     <g id="text_12">
      <!-- 0.0 -->
      <g transform="translate(274.668437 148.858437) scale(0.1 -0.1)">
       <use xlink:href="#DejaVuSans-30"/>
       <use xlink:href="#DejaVuSans-2e" x="63.623047"/>
       <use xlink:href="#DejaVuSans-30" x="95.410156"/>
      </g>
     </g>
    </g>
    <g id="xtick_6">
     <g id="line2d_23">
      <path d="M 314.512 134.26 
L 314.512 10.8 
" clip-path="url(#padcae5491c)" style="fill: none; stroke: #808080; stroke-width: 0.8; stroke-linecap: square"/>
     </g>
     <g id="line2d_24">
      <g>
       <use xlink:href="#m99013d89cc" x="314.512" y="134.26" style="stroke: #000000; stroke-width: 0.8"/>
      </g>
     </g>
     <g id="text_13">
      <!-- 0.2 -->
      <g transform="translate(306.560437 148.858437) scale(0.1 -0.1)">
       <defs>
        <path id="DejaVuSans-32" d="M 1228 531 
L 3431 531 
L 3431 0 
L 469 0 
L 469 531 
Q 828 903 1448 1529 
Q 2069 2156 2228 2338 
Q 2531 2678 2651 2914 
Q 2772 3150 2772 3378 
Q 2772 3750 2511 3984 
Q 2250 4219 1831 4219 
Q 1534 4219 1204 4116 
Q 875 4013 500 3803 
L 500 4441 
Q 881 4594 1212 4672 
Q 1544 4750 1819 4750 
Q 2544 4750 2975 4387 
Q 3406 4025 3406 3419 
Q 3406 3131 3298 2873 
Q 3191 2616 2906 2266 
Q 2828 2175 2409 1742 
Q 1991 1309 1228 531 
z
" transform="scale(0.015625)"/>
       </defs>
       <use xlink:href="#DejaVuSans-30"/>
       <use xlink:href="#DejaVuSans-2e" x="63.623047"/>
       <use xlink:href="#DejaVuSans-32" x="95.410156"/>
      </g>
     </g>
    </g>
    <g id="xtick_7">
     <g id="line2d_25">
      <path d="M 346.404 134.26 
L 346.404 10.8 
" clip-path="url(#padcae5491c)" style="fill: none; stroke: #808080; stroke-width: 0.8; stroke-linecap: square"/>
     </g>
     <g id="line2d_26">
      <g>
       <use xlink:href="#m99013d89cc" x="346.404" y="134.26" style="stroke: #000000; stroke-width: 0.8"/>
      </g>
     </g>
     <g id="text_14">
      <!-- 0.4 -->
      <g transform="translate(338.452437 148.858437) scale(0.1 -0.1)">
       <defs>
        <path id="DejaVuSans-34" d="M 2419 4116 
L 825 1625 
L 2419 1625 
L 2419 4116 
z
M 2253 4666 
L 3047 4666 
L 3047 1625 
L 3713 1625 
L 3713 1100 
L 3047 1100 
L 3047 0 
L 2419 0 
L 2419 1100 
L 313 1100 
L 313 1709 
L 2253 4666 
z
" transform="scale(0.015625)"/>
       </defs>
       <use xlink:href="#DejaVuSans-30"/>
       <use xlink:href="#DejaVuSans-2e" x="63.623047"/>
       <use xlink:href="#DejaVuSans-34" x="95.410156"/>
      </g>
     </g>
    </g>
    <g id="xtick_8">
     <g id="line2d_27">
      <path d="M 378.296 134.26 
L 378.296 10.8 
" clip-path="url(#padcae5491c)" style="fill: none; stroke: #808080; stroke-width: 0.8; stroke-linecap: square"/>
     </g>
     <g id="line2d_28">
      <g>
       <use xlink:href="#m99013d89cc" x="378.296" y="134.26" style="stroke: #000000; stroke-width: 0.8"/>
      </g>
     </g>
     <g id="text_15">
      <!-- 0.6 -->
      <g transform="translate(370.344437 148.858437) scale(0.1 -0.1)">
       <defs>
        <path id="DejaVuSans-36" d="M 2113 2584 
Q 1688 2584 1439 2293 
Q 1191 2003 1191 1497 
Q 1191 994 1439 701 
Q 1688 409 2113 409 
Q 2538 409 2786 701 
Q 3034 994 3034 1497 
Q 3034 2003 2786 2293 
Q 2538 2584 2113 2584 
z
M 3366 4563 
L 3366 3988 
Q 3128 4100 2886 4159 
Q 2644 4219 2406 4219 
Q 1781 4219 1451 3797 
Q 1122 3375 1075 2522 
Q 1259 2794 1537 2939 
Q 1816 3084 2150 3084 
Q 2853 3084 3261 2657 
Q 3669 2231 3669 1497 
Q 3669 778 3244 343 
Q 2819 -91 2113 -91 
Q 1303 -91 875 529 
Q 447 1150 447 2328 
Q 447 3434 972 4092 
Q 1497 4750 2381 4750 
Q 2619 4750 2861 4703 
Q 3103 4656 3366 4563 
z
" transform="scale(0.015625)"/>
       </defs>
       <use xlink:href="#DejaVuSans-30"/>
       <use xlink:href="#DejaVuSans-2e" x="63.623047"/>
       <use xlink:href="#DejaVuSans-36" x="95.410156"/>
      </g>
     </g>
    </g>
    <g id="xtick_9">
     <g id="line2d_29">
      <path d="M 410.188 134.26 
L 410.188 10.8 
" clip-path="url(#padcae5491c)" style="fill: none; stroke: #808080; stroke-width: 0.8; stroke-linecap: square"/>
     </g>
     <g id="line2d_30">
      <g>
       <use xlink:href="#m99013d89cc" x="410.188" y="134.26" style="stroke: #000000; stroke-width: 0.8"/>
      </g>
     </g>
     <g id="text_16">
      <!-- 0.8 -->
      <g transform="translate(402.236437 148.858437) scale(0.1 -0.1)">
       <defs>
        <path id="DejaVuSans-38" d="M 2034 2216 
Q 1584 2216 1326 1975 
Q 1069 1734 1069 1313 
Q 1069 891 1326 650 
Q 1584 409 2034 409 
Q 2484 409 2743 651 
Q 3003 894 3003 1313 
Q 3003 1734 2745 1975 
Q 2488 2216 2034 2216 
z
M 1403 2484 
Q 997 2584 770 2862 
Q 544 3141 544 3541 
Q 544 4100 942 4425 
Q 1341 4750 2034 4750 
Q 2731 4750 3128 4425 
Q 3525 4100 3525 3541 
Q 3525 3141 3298 2862 
Q 3072 2584 2669 2484 
Q 3125 2378 3379 2068 
Q 3634 1759 3634 1313 
Q 3634 634 3220 271 
Q 2806 -91 2034 -91 
Q 1263 -91 848 271 
Q 434 634 434 1313 
Q 434 1759 690 2068 
Q 947 2378 1403 2484 
z
M 1172 3481 
Q 1172 3119 1398 2916 
Q 1625 2713 2034 2713 
Q 2441 2713 2670 2916 
Q 2900 3119 2900 3481 
Q 2900 3844 2670 4047 
Q 2441 4250 2034 4250 
Q 1625 4250 1398 4047 
Q 1172 3844 1172 3481 
z
" transform="scale(0.015625)"/>
       </defs>
       <use xlink:href="#DejaVuSans-30"/>
       <use xlink:href="#DejaVuSans-2e" x="63.623047"/>
       <use xlink:href="#DejaVuSans-38" x="95.410156"/>
      </g>
     </g>
    </g>
    <g id="xtick_10">
     <g id="line2d_31">
      <path d="M 442.08 134.26 
L 442.08 10.8 
" clip-path="url(#padcae5491c)" style="fill: none; stroke: #808080; stroke-width: 0.8; stroke-linecap: square"/>
     </g>
     <g id="line2d_32">
      <g>
       <use xlink:href="#m99013d89cc" x="442.08" y="134.26" style="stroke: #000000; stroke-width: 0.8"/>
      </g>
     </g>
     <g id="text_17">
      <!-- 1.0 -->
      <g transform="translate(434.128437 148.858437) scale(0.1 -0.1)">
       <use xlink:href="#DejaVuSans-31"/>
       <use xlink:href="#DejaVuSans-2e" x="63.623047"/>
       <use xlink:href="#DejaVuSans-30" x="95.410156"/>
      </g>
     </g>
    </g>
    <g id="text_18">
     <!-- Frequency -->
     <g transform="translate(336.520312 162.536562) scale(0.1 -0.1)">
      <defs>
       <path id="DejaVuSans-46" d="M 628 4666 
L 3309 4666 
L 3309 4134 
L 1259 4134 
L 1259 2759 
L 3109 2759 
L 3109 2228 
L 1259 2228 
L 1259 0 
L 628 0 
L 628 4666 
z
" transform="scale(0.015625)"/>
       <path id="DejaVuSans-72" d="M 2631 2963 
Q 2534 3019 2420 3045 
Q 2306 3072 2169 3072 
Q 1681 3072 1420 2755 
Q 1159 2438 1159 1844 
L 1159 0 
L 581 0 
L 581 3500 
L 1159 3500 
L 1159 2956 
Q 1341 3275 1631 3429 
Q 1922 3584 2338 3584 
Q 2397 3584 2469 3576 
Q 2541 3569 2628 3553 
L 2631 2963 
z
" transform="scale(0.015625)"/>
       <path id="DejaVuSans-71" d="M 947 1747 
Q 947 1113 1208 752 
Q 1469 391 1925 391 
Q 2381 391 2643 752 
Q 2906 1113 2906 1747 
Q 2906 2381 2643 2742 
Q 2381 3103 1925 3103 
Q 1469 3103 1208 2742 
Q 947 2381 947 1747 
z
M 2906 525 
Q 2725 213 2448 61 
Q 2172 -91 1784 -91 
Q 1150 -91 751 415 
Q 353 922 353 1747 
Q 353 2572 751 3078 
Q 1150 3584 1784 3584 
Q 2172 3584 2448 3432 
Q 2725 3281 2906 2969 
L 2906 3500 
L 3481 3500 
L 3481 -1331 
L 2906 -1331 
L 2906 525 
z
" transform="scale(0.015625)"/>
       <path id="DejaVuSans-6e" d="M 3513 2113 
L 3513 0 
L 2938 0 
L 2938 2094 
Q 2938 2591 2744 2837 
Q 2550 3084 2163 3084 
Q 1697 3084 1428 2787 
Q 1159 2491 1159 1978 
L 1159 0 
L 581 0 
L 581 3500 
L 1159 3500 
L 1159 2956 
Q 1366 3272 1645 3428 
Q 1925 3584 2291 3584 
Q 2894 3584 3203 3211 
Q 3513 2838 3513 2113 
z
" transform="scale(0.015625)"/>
       <path id="DejaVuSans-63" d="M 3122 3366 
L 3122 2828 
Q 2878 2963 2633 3030 
Q 2388 3097 2138 3097 
Q 1578 3097 1268 2742 
Q 959 2388 959 1747 
Q 959 1106 1268 751 
Q 1578 397 2138 397 
Q 2388 397 2633 464 
Q 2878 531 3122 666 
L 3122 134 
Q 2881 22 2623 -34 
Q 2366 -91 2075 -91 
Q 1284 -91 818 406 
Q 353 903 353 1747 
Q 353 2603 823 3093 
Q 1294 3584 2113 3584 
Q 2378 3584 2631 3529 
Q 2884 3475 3122 3366 
z
" transform="scale(0.015625)"/>
       <path id="DejaVuSans-79" d="M 2059 -325 
Q 1816 -950 1584 -1140 
Q 1353 -1331 966 -1331 
L 506 -1331 
L 506 -850 
L 844 -850 
Q 1081 -850 1212 -737 
Q 1344 -625 1503 -206 
L 1606 56 
L 191 3500 
L 800 3500 
L 1894 763 
L 2988 3500 
L 3597 3500 
L 2059 -325 
z
" transform="scale(0.015625)"/>
      </defs>
      <use xlink:href="#DejaVuSans-46"/>
      <use xlink:href="#DejaVuSans-72" x="50.269531"/>
      <use xlink:href="#DejaVuSans-65" x="89.132812"/>
      <use xlink:href="#DejaVuSans-71" x="150.65625"/>
      <use xlink:href="#DejaVuSans-75" x="214.132812"/>
      <use xlink:href="#DejaVuSans-65" x="277.511719"/>
      <use xlink:href="#DejaVuSans-6e" x="339.035156"/>
      <use xlink:href="#DejaVuSans-63" x="402.414062"/>
      <use xlink:href="#DejaVuSans-79" x="457.394531"/>
     </g>
    </g>
   </g>
   <g id="matplotlib.axis_4">
    <g id="ytick_6">
     <g id="line2d_33">
      <path d="M 282.62 134.26 
L 442.08 134.26 
" clip-path="url(#padcae5491c)" style="fill: none; stroke: #808080; stroke-width: 0.8; stroke-linecap: square"/>
     </g>
     <g id="line2d_34">
      <g>
       <use xlink:href="#m7b93ee9252" x="282.62" y="134.26" style="stroke: #000000; stroke-width: 0.8"/>
      </g>
     </g>
     <g id="text_19">
      <!-- 0.0 -->
      <g transform="translate(259.716875 138.059219) scale(0.1 -0.1)">
       <use xlink:href="#DejaVuSans-30"/>
       <use xlink:href="#DejaVuSans-2e" x="63.623047"/>
       <use xlink:href="#DejaVuSans-30" x="95.410156"/>
      </g>
     </g>
    </g>
    <g id="ytick_7">
     <g id="line2d_35">
      <path d="M 282.62 111.812727 
L 442.08 111.812727 
" clip-path="url(#padcae5491c)" style="fill: none; stroke: #808080; stroke-width: 0.8; stroke-linecap: square"/>
     </g>
     <g id="line2d_36">
      <g>
       <use xlink:href="#m7b93ee9252" x="282.62" y="111.812727" style="stroke: #000000; stroke-width: 0.8"/>
      </g>
     </g>
     <g id="text_20">
      <!-- 0.2 -->
      <g transform="translate(259.716875 115.611946) scale(0.1 -0.1)">
       <use xlink:href="#DejaVuSans-30"/>
       <use xlink:href="#DejaVuSans-2e" x="63.623047"/>
       <use xlink:href="#DejaVuSans-32" x="95.410156"/>
      </g>
     </g>
    </g>
    <g id="ytick_8">
     <g id="line2d_37">
      <path d="M 282.62 89.365455 
L 442.08 89.365455 
" clip-path="url(#padcae5491c)" style="fill: none; stroke: #808080; stroke-width: 0.8; stroke-linecap: square"/>
     </g>
     <g id="line2d_38">
      <g>
       <use xlink:href="#m7b93ee9252" x="282.62" y="89.365455" style="stroke: #000000; stroke-width: 0.8"/>
      </g>
     </g>
     <g id="text_21">
      <!-- 0.4 -->
      <g transform="translate(259.716875 93.164673) scale(0.1 -0.1)">
       <use xlink:href="#DejaVuSans-30"/>
       <use xlink:href="#DejaVuSans-2e" x="63.623047"/>
       <use xlink:href="#DejaVuSans-34" x="95.410156"/>
      </g>
     </g>
    </g>
    <g id="ytick_9">
     <g id="line2d_39">
      <path d="M 282.62 66.918182 
L 442.08 66.918182 
" clip-path="url(#padcae5491c)" style="fill: none; stroke: #808080; stroke-width: 0.8; stroke-linecap: square"/>
     </g>
     <g id="line2d_40">
      <g>
       <use xlink:href="#m7b93ee9252" x="282.62" y="66.918182" style="stroke: #000000; stroke-width: 0.8"/>
      </g>
     </g>
     <g id="text_22">
      <!-- 0.6 -->
      <g transform="translate(259.716875 70.717401) scale(0.1 -0.1)">
       <use xlink:href="#DejaVuSans-30"/>
       <use xlink:href="#DejaVuSans-2e" x="63.623047"/>
       <use xlink:href="#DejaVuSans-36" x="95.410156"/>
      </g>
     </g>
    </g>
    <g id="ytick_10">
     <g id="line2d_41">
      <path d="M 282.62 44.470909 
L 442.08 44.470909 
" clip-path="url(#padcae5491c)" style="fill: none; stroke: #808080; stroke-width: 0.8; stroke-linecap: square"/>
     </g>
     <g id="line2d_42">
      <g>
       <use xlink:href="#m7b93ee9252" x="282.62" y="44.470909" style="stroke: #000000; stroke-width: 0.8"/>
      </g>
     </g>
     <g id="text_23">
      <!-- 0.8 -->
      <g transform="translate(259.716875 48.270128) scale(0.1 -0.1)">
       <use xlink:href="#DejaVuSans-30"/>
       <use xlink:href="#DejaVuSans-2e" x="63.623047"/>
       <use xlink:href="#DejaVuSans-38" x="95.410156"/>
      </g>
     </g>
    </g>
    <g id="ytick_11">
     <g id="line2d_43">
      <path d="M 282.62 22.023636 
L 442.08 22.023636 
" clip-path="url(#padcae5491c)" style="fill: none; stroke: #808080; stroke-width: 0.8; stroke-linecap: square"/>
     </g>
     <g id="line2d_44">
      <g>
       <use xlink:href="#m7b93ee9252" x="282.62" y="22.023636" style="stroke: #000000; stroke-width: 0.8"/>
      </g>
     </g>
     <g id="text_24">
      <!-- 1.0 -->
      <g transform="translate(259.716875 25.822855) scale(0.1 -0.1)">
       <use xlink:href="#DejaVuSans-31"/>
       <use xlink:href="#DejaVuSans-2e" x="63.623047"/>
       <use xlink:href="#DejaVuSans-30" x="95.410156"/>
      </g>
     </g>
    </g>
    <g id="text_25">
     <!-- Magnitude -->
     <g transform="translate(253.637187 99.019844) rotate(-90) scale(0.1 -0.1)">
      <defs>
       <path id="DejaVuSans-4d" d="M 628 4666 
L 1569 4666 
L 2759 1491 
L 3956 4666 
L 4897 4666 
L 4897 0 
L 4281 0 
L 4281 4097 
L 3078 897 
L 2444 897 
L 1241 4097 
L 1241 0 
L 628 0 
L 628 4666 
z
" transform="scale(0.015625)"/>
       <path id="DejaVuSans-67" d="M 2906 1791 
Q 2906 2416 2648 2759 
Q 2391 3103 1925 3103 
Q 1463 3103 1205 2759 
Q 947 2416 947 1791 
Q 947 1169 1205 825 
Q 1463 481 1925 481 
Q 2391 481 2648 825 
Q 2906 1169 2906 1791 
z
M 3481 434 
Q 3481 -459 3084 -895 
Q 2688 -1331 1869 -1331 
Q 1566 -1331 1297 -1286 
Q 1028 -1241 775 -1147 
L 775 -588 
Q 1028 -725 1275 -790 
Q 1522 -856 1778 -856 
Q 2344 -856 2625 -561 
Q 2906 -266 2906 331 
L 2906 616 
Q 2728 306 2450 153 
Q 2172 0 1784 0 
Q 1141 0 747 490 
Q 353 981 353 1791 
Q 353 2603 747 3093 
Q 1141 3584 1784 3584 
Q 2172 3584 2450 3431 
Q 2728 3278 2906 2969 
L 2906 3500 
L 3481 3500 
L 3481 434 
z
" transform="scale(0.015625)"/>
      </defs>
      <use xlink:href="#DejaVuSans-4d"/>
      <use xlink:href="#DejaVuSans-61" x="86.279297"/>
      <use xlink:href="#DejaVuSans-67" x="147.558594"/>
      <use xlink:href="#DejaVuSans-6e" x="211.035156"/>
      <use xlink:href="#DejaVuSans-69" x="274.414062"/>
      <use xlink:href="#DejaVuSans-74" x="302.197266"/>
      <use xlink:href="#DejaVuSans-75" x="341.40625"/>
      <use xlink:href="#DejaVuSans-64" x="404.785156"/>
      <use xlink:href="#DejaVuSans-65" x="468.261719"/>
     </g>
    </g>
   </g>
   <g id="line2d_45">
    <path d="M 282.62 23.254548 
L 283.865781 23.131227 
L 285.423008 22.700929 
L 289.783242 21.252797 
L 290.717578 21.216087 
L 291.651914 21.435538 
L 292.58625 21.932296 
L 295.077812 23.573876 
L 295.700703 23.641998 
L 296.323594 23.434735 
L 296.946484 22.94413 
L 297.88082 21.805314 
L 299.126602 20.255254 
L 299.749492 19.896345 
L 300.060937 19.912166 
L 300.372383 20.091185 
L 300.683828 20.455935 
L 301.306719 21.820395 
L 301.929609 24.131168 
L 302.5525 27.4606 
L 303.175391 31.823815 
L 304.109727 40.201787 
L 305.355508 54.187274 
L 310.027187 110.996773 
L 310.961523 118.966996 
L 311.895859 125.12259 
L 312.830195 129.5204 
L 313.453086 131.567662 
L 314.075977 132.995568 
L 314.698867 133.842553 
L 315.010312 133.959802 
L 316.256094 133.675435 
L 317.501875 133.800817 
L 318.747656 133.854479 
L 320.616328 133.823056 
L 323.107891 133.93121 
L 326.533789 133.64652 
L 331.828359 133.620857 
L 335.877148 134.080579 
L 340.860273 133.615797 
L 343.040391 133.580728 
L 346.154844 133.650071 
L 348.957852 133.496704 
L 350.515078 133.689018 
L 352.38375 134.004893 
L 353.318086 133.864588 
L 355.498203 133.471527 
L 356.743984 133.465161 
L 360.792773 133.699699 
L 362.972891 133.469679 
L 364.530117 133.529672 
L 367.64457 133.752048 
L 370.759023 133.817117 
L 372.939141 133.892154 
L 377.299375 133.640467 
L 379.790937 133.655841 
L 383.216836 133.518785 
L 385.396953 133.766551 
L 387.265625 133.921048 
L 394.117422 133.764613 
L 395.986094 133.697138 
L 397.54332 133.850666 
L 400.034883 134.166033 
L 402.215 133.831488 
L 404.083672 133.80889 
L 407.198125 133.890253 
L 411.246914 133.783764 
L 413.427031 133.637592 
L 416.230039 133.416677 
L 418.721602 133.503884 
L 421.524609 133.576365 
L 430.556523 133.574198 
L 433.670977 133.762013 
L 439.588437 133.768218 
L 441.768555 133.777389 
L 441.768555 133.777389 
" clip-path="url(#padcae5491c)" style="fill: none; stroke: #000000; stroke-width: 1.5; stroke-linecap: square"/>
   </g>
   <g id="line2d_46">
    <path d="M 282.62 19.262209 
L 282.931445 19.329502 
L 283.554336 19.849095 
L 284.177227 20.791371 
L 286.045898 24.146953 
L 286.668789 24.689283 
L 286.980234 24.759732 
L 287.29168 24.688763 
L 287.91457 24.144852 
L 288.537461 23.170976 
L 290.406133 19.820828 
L 291.029023 19.291153 
L 291.340469 19.21947 
L 291.651914 19.28331 
L 292.274805 19.800367 
L 292.897695 20.747992 
L 294.766367 24.152347 
L 295.389258 24.695182 
L 295.700703 24.755718 
L 296.012148 24.666093 
L 296.635039 24.055986 
L 297.25793 22.982235 
L 298.815156 19.88442 
L 299.438047 19.264769 
L 299.749492 19.229754 
L 300.060937 19.416448 
L 300.372383 19.848457 
L 300.683828 20.544787 
L 301.306719 22.782649 
L 301.929609 26.187131 
L 302.5525 30.742719 
L 303.486836 39.543169 
L 304.732617 54.133476 
L 308.781406 105.044555 
L 309.715742 113.9504 
L 310.650078 121.093625 
L 311.584414 126.468092 
L 312.51875 130.215 
L 313.141641 131.927849 
L 313.764531 133.115756 
L 314.387422 133.873976 
L 314.698867 134.121793 
L 315.010312 134.222333 
L 315.633203 134.043539 
L 316.567539 134.06033 
L 317.81332 134.21871 
L 319.370547 134.027458 
L 320.927773 134.095159 
L 322.485 134.204261 
L 324.353672 134.027311 
L 326.222344 134.100242 
L 327.77957 134.208428 
L 330.582578 134.024532 
L 332.762695 134.17873 
L 333.697031 134.209224 
L 336.500039 134.020819 
L 338.680156 134.153443 
L 339.925937 134.221428 
L 342.4175 134.029373 
L 344.597617 134.107371 
L 346.466289 134.173102 
L 349.580742 134.02798 
L 354.252422 134.079947 
L 356.432539 134.043223 
L 360.169883 134.125504 
L 362.661445 134.038977 
L 367.333125 134.074433 
L 369.513242 134.038767 
L 373.562031 134.10982 
L 376.053594 134.044749 
L 380.413828 134.078377 
L 382.905391 134.044212 
L 386.642734 134.100994 
L 389.445742 134.03631 
L 393.805977 134.076616 
L 396.297539 134.058913 
L 399.723437 134.150506 
L 402.526445 134.038177 
L 413.115586 134.130147 
L 416.230039 134.062052 
L 419.967383 134.102527 
L 422.770391 134.042498 
L 427.130625 134.076314 
L 429.933633 134.063547 
L 433.048086 134.105495 
L 436.162539 134.045309 
L 440.522773 134.108001 
L 441.768555 134.065513 
L 441.768555 134.065513 
" clip-path="url(#padcae5491c)" style="fill: none; stroke: #ff0000; stroke-width: 1.5; stroke-linecap: square"/>
   </g>
   <g id="patch_8">
    <path d="M 282.62 134.26 
L 282.62 10.8 
" style="fill: none; stroke: #000000; stroke-width: 0.8; stroke-linejoin: miter; stroke-linecap: square"/>
   </g>
   <g id="patch_9">
    <path d="M 442.08 134.26 
L 442.08 10.8 
" style="fill: none; stroke: #000000; stroke-width: 0.8; stroke-linejoin: miter; stroke-linecap: square"/>
   </g>
   <g id="patch_10">
    <path d="M 282.62 134.26 
L 442.08 134.26 
" style="fill: none; stroke: #000000; stroke-width: 0.8; stroke-linejoin: miter; stroke-linecap: square"/>
   </g>
   <g id="patch_11">
    <path d="M 282.62 10.8 
L 442.08 10.8 
" style="fill: none; stroke: #000000; stroke-width: 0.8; stroke-linejoin: miter; stroke-linecap: square"/>
   </g>
   <g id="legend_1">
    <g id="patch_12">
     <path d="M 359.900312 62.834375 
L 435.08 62.834375 
Q 437.08 62.834375 437.08 60.834375 
L 437.08 17.8 
Q 437.08 15.8 435.08 15.8 
L 359.900312 15.8 
Q 357.900312 15.8 357.900312 17.8 
L 357.900312 60.834375 
Q 357.900312 62.834375 359.900312 62.834375 
z
" style="fill: #ffffff; opacity: 0.8; stroke: #cccccc; stroke-linejoin: miter"/>
    </g>
    <g id="text_26">
     <!-- Phase -->
     <g transform="translate(382.56125 27.398438) scale(0.1 -0.1)">
      <defs>
       <path id="DejaVuSans-50" d="M 1259 4147 
L 1259 2394 
L 2053 2394 
Q 2494 2394 2734 2622 
Q 2975 2850 2975 3272 
Q 2975 3691 2734 3919 
Q 2494 4147 2053 4147 
L 1259 4147 
z
M 628 4666 
L 2053 4666 
Q 2838 4666 3239 4311 
Q 3641 3956 3641 3272 
Q 3641 2581 3239 2228 
Q 2838 1875 2053 1875 
L 1259 1875 
L 1259 0 
L 628 0 
L 628 4666 
z
" transform="scale(0.015625)"/>
       <path id="DejaVuSans-68" d="M 3513 2113 
L 3513 0 
L 2938 0 
L 2938 2094 
Q 2938 2591 2744 2837 
Q 2550 3084 2163 3084 
Q 1697 3084 1428 2787 
Q 1159 2491 1159 1978 
L 1159 0 
L 581 0 
L 581 4863 
L 1159 4863 
L 1159 2956 
Q 1366 3272 1645 3428 
Q 1925 3584 2291 3584 
Q 2894 3584 3203 3211 
Q 3513 2838 3513 2113 
z
" transform="scale(0.015625)"/>
      </defs>
      <use xlink:href="#DejaVuSans-50"/>
      <use xlink:href="#DejaVuSans-68" x="60.302734"/>
      <use xlink:href="#DejaVuSans-61" x="123.681641"/>
      <use xlink:href="#DejaVuSans-73" x="184.960938"/>
      <use xlink:href="#DejaVuSans-65" x="237.060547"/>
     </g>
    </g>
    <g id="line2d_47">
     <path d="M 361.900312 38.576563 
L 371.900312 38.576563 
L 381.900312 38.576563 
" style="fill: none; stroke: #000000; stroke-width: 1.5; stroke-linecap: square"/>
    </g>
    <g id="text_27">
     <!-- Our(csd) -->
     <g transform="translate(389.900312 42.076563) scale(0.1 -0.1)">
      <defs>
       <path id="DejaVuSans-4f" d="M 2522 4238 
Q 1834 4238 1429 3725 
Q 1025 3213 1025 2328 
Q 1025 1447 1429 934 
Q 1834 422 2522 422 
Q 3209 422 3611 934 
Q 4013 1447 4013 2328 
Q 4013 3213 3611 3725 
Q 3209 4238 2522 4238 
z
M 2522 4750 
Q 3503 4750 4090 4092 
Q 4678 3434 4678 2328 
Q 4678 1225 4090 567 
Q 3503 -91 2522 -91 
Q 1538 -91 948 565 
Q 359 1222 359 2328 
Q 359 3434 948 4092 
Q 1538 4750 2522 4750 
z
" transform="scale(0.015625)"/>
       <path id="DejaVuSans-28" d="M 1984 4856 
Q 1566 4138 1362 3434 
Q 1159 2731 1159 2009 
Q 1159 1288 1364 580 
Q 1569 -128 1984 -844 
L 1484 -844 
Q 1016 -109 783 600 
Q 550 1309 550 2009 
Q 550 2706 781 3412 
Q 1013 4119 1484 4856 
L 1984 4856 
z
" transform="scale(0.015625)"/>
       <path id="DejaVuSans-29" d="M 513 4856 
L 1013 4856 
Q 1481 4119 1714 3412 
Q 1947 2706 1947 2009 
Q 1947 1309 1714 600 
Q 1481 -109 1013 -844 
L 513 -844 
Q 928 -128 1133 580 
Q 1338 1288 1338 2009 
Q 1338 2731 1133 3434 
Q 928 4138 513 4856 
z
" transform="scale(0.015625)"/>
      </defs>
      <use xlink:href="#DejaVuSans-4f"/>
      <use xlink:href="#DejaVuSans-75" x="78.710938"/>
      <use xlink:href="#DejaVuSans-72" x="142.089844"/>
      <use xlink:href="#DejaVuSans-28" x="183.203125"/>
      <use xlink:href="#DejaVuSans-63" x="222.216797"/>
      <use xlink:href="#DejaVuSans-73" x="277.197266"/>
      <use xlink:href="#DejaVuSans-64" x="329.296875"/>
      <use xlink:href="#DejaVuSans-29" x="392.773438"/>
     </g>
    </g>
    <g id="line2d_48">
     <path d="M 361.900312 53.254688 
L 371.900312 53.254688 
L 381.900312 53.254688 
" style="fill: none; stroke: #ff0000; stroke-width: 1.5; stroke-linecap: square"/>
    </g>
    <g id="text_28">
     <!-- Our -->
     <g transform="translate(389.900312 56.754688) scale(0.1 -0.1)">
      <use xlink:href="#DejaVuSans-4f"/>
      <use xlink:href="#DejaVuSans-75" x="78.710938"/>
      <use xlink:href="#DejaVuSans-72" x="142.089844"/>
     </g>
    </g>
   </g>
  </g>
  <g id="axes_3">
   <g id="patch_13">
    <path d="M 62.3 303.64 
L 221.76 303.64 
L 221.76 180.18 
L 62.3 180.18 
z
" style="fill: #ffffff"/>
   </g>
   <g id="PolyCollection_3">
    <defs>
     <path id="mee68ff1400" d="M 81.4352 -157.494544 
L 81.4352 -36.53223 
L 94.192 -36.53223 
L 94.192 -157.494544 
L 94.192 -157.494544 
L 81.4352 -157.494544 
z
" style="stroke: #ffeeaa"/>
    </defs>
    <g clip-path="url(#p208a100a4c)">
     <use xlink:href="#mee68ff1400" x="0" y="345.6" style="fill: #ffeeaa; stroke: #ffeeaa"/>
    </g>
   </g>
   <g id="matplotlib.axis_5">
    <g id="xtick_11">
     <g id="line2d_49">
      <path d="M 62.3 303.64 
L 62.3 180.18 
" clip-path="url(#p208a100a4c)" style="fill: none; stroke: #808080; stroke-width: 0.8; stroke-linecap: square"/>
     </g>
     <g id="line2d_50">
      <g>
       <use xlink:href="#m99013d89cc" x="62.3" y="303.64" style="stroke: #000000; stroke-width: 0.8"/>
      </g>
     </g>
     <g id="text_29">
      <!-- 0.0 -->
      <g transform="translate(54.348438 318.238437) scale(0.1 -0.1)">
       <use xlink:href="#DejaVuSans-30"/>
       <use xlink:href="#DejaVuSans-2e" x="63.623047"/>
       <use xlink:href="#DejaVuSans-30" x="95.410156"/>
      </g>
     </g>
    </g>
    <g id="xtick_12">
     <g id="line2d_51">
      <path d="M 94.192 303.64 
L 94.192 180.18 
" clip-path="url(#p208a100a4c)" style="fill: none; stroke: #808080; stroke-width: 0.8; stroke-linecap: square"/>
     </g>
     <g id="line2d_52">
      <g>
       <use xlink:href="#m99013d89cc" x="94.192" y="303.64" style="stroke: #000000; stroke-width: 0.8"/>
      </g>
     </g>
     <g id="text_30">
      <!-- 0.2 -->
      <g transform="translate(86.240437 318.238437) scale(0.1 -0.1)">
       <use xlink:href="#DejaVuSans-30"/>
       <use xlink:href="#DejaVuSans-2e" x="63.623047"/>
       <use xlink:href="#DejaVuSans-32" x="95.410156"/>
      </g>
     </g>
    </g>
    <g id="xtick_13">
     <g id="line2d_53">
      <path d="M 126.084 303.64 
L 126.084 180.18 
" clip-path="url(#p208a100a4c)" style="fill: none; stroke: #808080; stroke-width: 0.8; stroke-linecap: square"/>
     </g>
     <g id="line2d_54">
      <g>
       <use xlink:href="#m99013d89cc" x="126.084" y="303.64" style="stroke: #000000; stroke-width: 0.8"/>
      </g>
     </g>
     <g id="text_31">
      <!-- 0.4 -->
      <g transform="translate(118.132437 318.238437) scale(0.1 -0.1)">
       <use xlink:href="#DejaVuSans-30"/>
       <use xlink:href="#DejaVuSans-2e" x="63.623047"/>
       <use xlink:href="#DejaVuSans-34" x="95.410156"/>
      </g>
     </g>
    </g>
    <g id="xtick_14">
     <g id="line2d_55">
      <path d="M 157.976 303.64 
L 157.976 180.18 
" clip-path="url(#p208a100a4c)" style="fill: none; stroke: #808080; stroke-width: 0.8; stroke-linecap: square"/>
     </g>
     <g id="line2d_56">
      <g>
       <use xlink:href="#m99013d89cc" x="157.976" y="303.64" style="stroke: #000000; stroke-width: 0.8"/>
      </g>
     </g>
     <g id="text_32">
      <!-- 0.6 -->
      <g transform="translate(150.024438 318.238437) scale(0.1 -0.1)">
       <use xlink:href="#DejaVuSans-30"/>
       <use xlink:href="#DejaVuSans-2e" x="63.623047"/>
       <use xlink:href="#DejaVuSans-36" x="95.410156"/>
      </g>
     </g>
    </g>
    <g id="xtick_15">
     <g id="line2d_57">
      <path d="M 189.868 303.64 
L 189.868 180.18 
" clip-path="url(#p208a100a4c)" style="fill: none; stroke: #808080; stroke-width: 0.8; stroke-linecap: square"/>
     </g>
     <g id="line2d_58">
      <g>
       <use xlink:href="#m99013d89cc" x="189.868" y="303.64" style="stroke: #000000; stroke-width: 0.8"/>
      </g>
     </g>
     <g id="text_33">
      <!-- 0.8 -->
      <g transform="translate(181.916437 318.238437) scale(0.1 -0.1)">
       <use xlink:href="#DejaVuSans-30"/>
       <use xlink:href="#DejaVuSans-2e" x="63.623047"/>
       <use xlink:href="#DejaVuSans-38" x="95.410156"/>
      </g>
     </g>
    </g>
    <g id="xtick_16">
     <g id="line2d_59">
      <path d="M 221.76 303.64 
L 221.76 180.18 
" clip-path="url(#p208a100a4c)" style="fill: none; stroke: #808080; stroke-width: 0.8; stroke-linecap: square"/>
     </g>
     <g id="line2d_60">
      <g>
       <use xlink:href="#m99013d89cc" x="221.76" y="303.64" style="stroke: #000000; stroke-width: 0.8"/>
      </g>
     </g>
     <g id="text_34">
      <!-- 1.0 -->
      <g transform="translate(213.808437 318.238437) scale(0.1 -0.1)">
       <use xlink:href="#DejaVuSans-31"/>
       <use xlink:href="#DejaVuSans-2e" x="63.623047"/>
       <use xlink:href="#DejaVuSans-30" x="95.410156"/>
      </g>
     </g>
    </g>
    <g id="text_35">
     <!-- Frequency -->
     <g transform="translate(116.200312 331.916562) scale(0.1 -0.1)">
      <use xlink:href="#DejaVuSans-46"/>
      <use xlink:href="#DejaVuSans-72" x="50.269531"/>
      <use xlink:href="#DejaVuSans-65" x="89.132812"/>
      <use xlink:href="#DejaVuSans-71" x="150.65625"/>
      <use xlink:href="#DejaVuSans-75" x="214.132812"/>
      <use xlink:href="#DejaVuSans-65" x="277.511719"/>
      <use xlink:href="#DejaVuSans-6e" x="339.035156"/>
      <use xlink:href="#DejaVuSans-63" x="402.414062"/>
      <use xlink:href="#DejaVuSans-79" x="457.394531"/>
     </g>
    </g>
   </g>
   <g id="matplotlib.axis_6">
    <g id="ytick_12">
     <g id="line2d_61">
      <path d="M 62.3 303.64 
L 221.76 303.64 
" clip-path="url(#p208a100a4c)" style="fill: none; stroke: #808080; stroke-width: 0.8; stroke-linecap: square"/>
     </g>
     <g id="line2d_62">
      <g>
       <use xlink:href="#m7b93ee9252" x="62.3" y="303.64" style="stroke: #000000; stroke-width: 0.8"/>
      </g>
     </g>
     <g id="text_36">
      <!-- −80 -->
      <g transform="translate(34.195312 307.439219) scale(0.1 -0.1)">
       <use xlink:href="#DejaVuSans-2212"/>
       <use xlink:href="#DejaVuSans-38" x="83.789062"/>
       <use xlink:href="#DejaVuSans-30" x="147.412109"/>
      </g>
     </g>
    </g>
    <g id="ytick_13">
     <g id="line2d_63">
      <path d="M 62.3 276.204444 
L 221.76 276.204444 
" clip-path="url(#p208a100a4c)" style="fill: none; stroke: #808080; stroke-width: 0.8; stroke-linecap: square"/>
     </g>
     <g id="line2d_64">
      <g>
       <use xlink:href="#m7b93ee9252" x="62.3" y="276.204444" style="stroke: #000000; stroke-width: 0.8"/>
      </g>
     </g>
     <g id="text_37">
      <!-- −60 -->
      <g transform="translate(34.195312 280.003663) scale(0.1 -0.1)">
       <use xlink:href="#DejaVuSans-2212"/>
       <use xlink:href="#DejaVuSans-36" x="83.789062"/>
       <use xlink:href="#DejaVuSans-30" x="147.412109"/>
      </g>
     </g>
    </g>
    <g id="ytick_14">
     <g id="line2d_65">
      <path d="M 62.3 248.768889 
L 221.76 248.768889 
" clip-path="url(#p208a100a4c)" style="fill: none; stroke: #808080; stroke-width: 0.8; stroke-linecap: square"/>
     </g>
     <g id="line2d_66">
      <g>
       <use xlink:href="#m7b93ee9252" x="62.3" y="248.768889" style="stroke: #000000; stroke-width: 0.8"/>
      </g>
     </g>
     <g id="text_38">
      <!-- −40 -->
      <g transform="translate(34.195312 252.568108) scale(0.1 -0.1)">
       <use xlink:href="#DejaVuSans-2212"/>
       <use xlink:href="#DejaVuSans-34" x="83.789062"/>
       <use xlink:href="#DejaVuSans-30" x="147.412109"/>
      </g>
     </g>
    </g>
    <g id="ytick_15">
     <g id="line2d_67">
      <path d="M 62.3 221.333333 
L 221.76 221.333333 
" clip-path="url(#p208a100a4c)" style="fill: none; stroke: #808080; stroke-width: 0.8; stroke-linecap: square"/>
     </g>
     <g id="line2d_68">
      <g>
       <use xlink:href="#m7b93ee9252" x="62.3" y="221.333333" style="stroke: #000000; stroke-width: 0.8"/>
      </g>
     </g>
     <g id="text_39">
      <!-- −20 -->
      <g transform="translate(34.195312 225.132552) scale(0.1 -0.1)">
       <use xlink:href="#DejaVuSans-2212"/>
       <use xlink:href="#DejaVuSans-32" x="83.789062"/>
       <use xlink:href="#DejaVuSans-30" x="147.412109"/>
      </g>
     </g>
    </g>
    <g id="ytick_16">
     <g id="line2d_69">
      <path d="M 62.3 193.897778 
L 221.76 193.897778 
" clip-path="url(#p208a100a4c)" style="fill: none; stroke: #808080; stroke-width: 0.8; stroke-linecap: square"/>
     </g>
     <g id="line2d_70">
      <g>
       <use xlink:href="#m7b93ee9252" x="62.3" y="193.897778" style="stroke: #000000; stroke-width: 0.8"/>
      </g>
     </g>
     <g id="text_40">
      <!-- 0 -->
      <g transform="translate(48.9375 197.696997) scale(0.1 -0.1)">
       <use xlink:href="#DejaVuSans-30"/>
      </g>
     </g>
    </g>
    <g id="text_41">
     <!-- Magnitude (dB) -->
     <g transform="translate(28.115625 280.495156) rotate(-90) scale(0.1 -0.1)">
      <defs>
       <path id="DejaVuSans-20" transform="scale(0.015625)"/>
       <path id="DejaVuSans-42" d="M 1259 2228 
L 1259 519 
L 2272 519 
Q 2781 519 3026 730 
Q 3272 941 3272 1375 
Q 3272 1813 3026 2020 
Q 2781 2228 2272 2228 
L 1259 2228 
z
M 1259 4147 
L 1259 2741 
L 2194 2741 
Q 2656 2741 2882 2914 
Q 3109 3088 3109 3444 
Q 3109 3797 2882 3972 
Q 2656 4147 2194 4147 
L 1259 4147 
z
M 628 4666 
L 2241 4666 
Q 2963 4666 3353 4366 
Q 3744 4066 3744 3513 
Q 3744 3084 3544 2831 
Q 3344 2578 2956 2516 
Q 3422 2416 3680 2098 
Q 3938 1781 3938 1306 
Q 3938 681 3513 340 
Q 3088 0 2303 0 
L 628 0 
L 628 4666 
z
" transform="scale(0.015625)"/>
      </defs>
      <use xlink:href="#DejaVuSans-4d"/>
      <use xlink:href="#DejaVuSans-61" x="86.279297"/>
      <use xlink:href="#DejaVuSans-67" x="147.558594"/>
      <use xlink:href="#DejaVuSans-6e" x="211.035156"/>
      <use xlink:href="#DejaVuSans-69" x="274.414062"/>
      <use xlink:href="#DejaVuSans-74" x="302.197266"/>
      <use xlink:href="#DejaVuSans-75" x="341.40625"/>
      <use xlink:href="#DejaVuSans-64" x="404.785156"/>
      <use xlink:href="#DejaVuSans-65" x="468.261719"/>
      <use xlink:href="#DejaVuSans-20" x="529.785156"/>
      <use xlink:href="#DejaVuSans-28" x="561.572266"/>
      <use xlink:href="#DejaVuSans-64" x="600.585938"/>
      <use xlink:href="#DejaVuSans-42" x="664.0625"/>
      <use xlink:href="#DejaVuSans-29" x="732.666016"/>
     </g>
    </g>
   </g>
   <g id="line2d_71">
    <path d="M 62.3 194.029174 
L 66.660234 193.908928 
L 71.020469 193.824453 
L 76.93793 193.95977 
L 79.740938 193.675705 
L 80.675273 193.792395 
L 81.609609 194.123642 
L 82.543945 194.720771 
L 83.478281 195.62624 
L 84.412617 196.877321 
L 85.346953 198.51021 
L 86.281289 200.564275 
L 87.215625 203.086751 
L 88.149961 206.138845 
L 89.084297 209.804987 
L 90.018633 214.20907 
L 90.952969 219.546993 
L 91.887305 226.162927 
L 92.821641 234.771121 
L 93.444531 242.460818 
L 94.067422 253.359094 
L 94.378867 260.553337 
L 94.690313 264.481925 
L 95.313203 258.656904 
L 95.624648 257.108734 
L 95.936094 256.541406 
L 96.247539 256.672303 
L 96.558984 257.310108 
L 97.804766 261.084809 
L 98.116211 261.208667 
L 98.427656 260.898715 
L 99.361992 259.548724 
L 99.673437 259.437763 
L 99.984883 259.588352 
L 100.296328 260.009458 
L 100.919219 261.605752 
L 101.853555 264.545261 
L 102.165 264.80029 
L 102.476445 264.369443 
L 103.099336 262.16994 
L 104.033672 258.801592 
L 104.656562 257.369717 
L 105.279453 256.537527 
L 105.902344 256.106141 
L 107.148125 255.508391 
L 108.082461 254.72876 
L 109.016797 253.909099 
L 109.639687 253.628334 
L 110.262578 253.727135 
L 110.885469 254.311197 
L 111.508359 255.477862 
L 112.13125 257.346012 
L 112.754141 260.094996 
L 113.377031 264.019967 
L 113.999922 269.489682 
L 114.622812 274.942567 
L 114.934258 274.96878 
L 116.491484 265.250594 
L 117.114375 263.027573 
L 118.048711 260.536744 
L 119.605937 256.99398 
L 120.540273 255.383892 
L 121.163164 254.714529 
L 121.786055 254.432254 
L 122.408945 254.550917 
L 123.031836 255.035252 
L 124.589062 256.708573 
L 124.900508 256.791701 
L 125.211953 256.700551 
L 125.834844 256.035319 
L 127.39207 253.660167 
L 128.014961 253.238817 
L 128.326406 253.226135 
L 128.637852 253.362709 
L 128.949297 253.661516 
L 129.572187 254.807361 
L 130.195078 256.821538 
L 130.817969 259.914194 
L 131.752305 265.812497 
L 132.06375 266.421234 
L 132.375195 265.391849 
L 133.620977 257.525472 
L 134.243867 255.001189 
L 134.866758 253.445215 
L 135.489648 252.693263 
L 135.801094 252.587195 
L 136.112539 252.65109 
L 136.423984 252.880228 
L 137.046875 253.818301 
L 137.669766 255.344066 
L 138.915547 258.882794 
L 139.226992 259.254945 
L 139.538437 259.188572 
L 139.849883 258.710282 
L 140.784219 256.134439 
L 141.407109 254.549683 
L 142.03 253.471157 
L 142.652891 252.948149 
L 142.964336 252.890026 
L 143.275781 252.96165 
L 143.898672 253.469576 
L 144.521562 254.401317 
L 146.390234 257.836545 
L 146.70168 258.103924 
L 147.013125 258.221924 
L 147.636016 258.126965 
L 148.570352 257.853294 
L 149.193242 258.031991 
L 149.816133 258.689189 
L 150.439023 259.848591 
L 151.684805 262.563574 
L 151.99625 262.778203 
L 152.307695 262.604172 
L 152.619141 262.06052 
L 153.553477 259.348669 
L 154.487812 256.947349 
L 155.110703 255.968561 
L 155.733594 255.505915 
L 156.356484 255.502465 
L 156.979375 255.849167 
L 158.225156 256.73609 
L 158.536602 256.781814 
L 158.848047 256.697176 
L 159.470937 256.148559 
L 161.339609 253.720494 
L 161.9625 253.396132 
L 162.273945 253.388897 
L 162.896836 253.712479 
L 163.519727 254.5108 
L 164.142617 255.797568 
L 165.076953 258.560393 
L 166.011289 261.619926 
L 166.63418 262.857743 
L 166.945625 263.035269 
L 167.25707 262.950662 
L 168.814297 261.679131 
L 169.125742 261.677742 
L 169.437187 261.812306 
L 170.060078 262.451683 
L 170.994414 263.736351 
L 171.305859 263.934415 
L 171.617305 263.859746 
L 171.92875 263.475129 
L 172.551641 261.973047 
L 173.797422 258.513687 
L 174.420312 257.39807 
L 175.043203 256.873092 
L 175.354648 256.848519 
L 175.666094 256.992189 
L 175.977539 257.314357 
L 176.60043 258.557855 
L 177.22332 260.787187 
L 177.846211 264.471373 
L 178.157656 267.195687 
L 178.469102 270.951434 
L 178.780547 276.688272 
L 179.091992 288.301465 
L 179.403437 292.335755 
L 179.714883 278.321335 
L 180.026328 272.199316 
L 180.649219 265.683774 
L 181.272109 262.198026 
L 181.895 260.241625 
L 182.517891 259.30389 
L 182.829336 259.138626 
L 183.140781 259.148993 
L 183.452227 259.318309 
L 184.075117 260.060982 
L 185.632344 262.610522 
L 185.943789 262.772558 
L 186.255234 262.705914 
L 186.56668 262.429745 
L 187.18957 261.483407 
L 188.123906 259.995207 
L 188.746797 259.358205 
L 189.369687 259.0689 
L 190.304023 259.05059 
L 190.926914 258.983462 
L 191.549805 258.559113 
L 192.172695 257.668414 
L 194.664258 253.075297 
L 195.287148 252.467961 
L 195.910039 252.174724 
L 196.53293 252.179556 
L 197.15582 252.444553 
L 198.090156 253.18482 
L 199.335937 254.269988 
L 199.958828 254.603935 
L 200.581719 254.726905 
L 201.516055 254.609872 
L 205.253398 253.572034 
L 207.433516 252.72957 
L 208.056406 252.739027 
L 208.679297 252.966561 
L 209.302187 253.444512 
L 209.925078 254.180563 
L 210.859414 255.690128 
L 212.105195 257.782697 
L 212.728086 258.368648 
L 213.039531 258.471052 
L 213.662422 258.331421 
L 215.842539 257.068156 
L 216.46543 257.080332 
L 217.08832 257.300767 
L 218.334102 258.087116 
L 219.268437 258.600722 
L 220.202773 258.820073 
L 221.448555 258.825013 
L 221.448555 258.825013 
" clip-path="url(#p208a100a4c)" style="fill: none; stroke: #000000; stroke-width: 1.5; stroke-linecap: square"/>
   </g>
   <g id="line2d_72">
    <path d="M 62.3 193.60817 
L 63.545781 193.713774 
L 66.660234 194.191843 
L 67.906016 194.077162 
L 71.020469 193.603743 
L 72.26625 193.708848 
L 75.380703 194.191406 
L 76.626484 194.062565 
L 79.429492 193.604808 
L 80.363828 193.741807 
L 81.298164 194.146085 
L 82.2325 194.861335 
L 83.166836 195.919955 
L 84.101172 197.349505 
L 85.035508 199.177831 
L 85.969844 201.437366 
L 86.90418 204.169477 
L 88.149961 208.646791 
L 89.395742 214.266818 
L 90.330078 219.431154 
L 91.264414 225.681588 
L 92.19875 233.493186 
L 92.821641 240.054724 
L 93.444531 248.538845 
L 94.067422 261.485807 
L 94.690313 289.213576 
L 95.001758 272.565996 
L 95.313203 268.37856 
L 95.624648 267.156859 
L 95.936094 267.579121 
L 96.247539 269.340625 
L 96.558984 272.600066 
L 96.87043 278.179375 
L 97.181875 288.874448 
L 97.49332 288.119455 
L 97.804766 278.34668 
L 98.116211 273.314616 
L 98.427656 270.334373 
L 98.739102 268.52465 
L 99.050547 267.524727 
L 99.361992 267.166645 
L 99.673437 267.376919 
L 99.984883 268.144328 
L 100.296328 269.516791 
L 100.607773 271.624585 
L 100.919219 274.756524 
L 101.230664 279.612331 
L 101.853555 299.484379 
L 102.165 284.544248 
L 102.476445 277.811447 
L 103.099336 271.201639 
L 103.722227 268.221818 
L 104.033672 267.517197 
L 104.345117 267.230805 
L 104.656562 267.33306 
L 104.968008 267.820935 
L 105.279453 268.717055 
L 105.590898 270.075566 
L 105.902344 271.997792 
L 106.213789 274.666183 
L 106.525234 278.41035 
L 107.148125 288.895325 
L 107.45957 285.470034 
L 108.082461 275.742811 
L 108.705352 270.79483 
L 109.328242 268.280618 
L 109.639687 267.639937 
L 109.951133 267.344719 
L 110.262578 267.375744 
L 110.574023 267.731694 
L 110.885469 268.429008 
L 111.196914 269.505635 
L 111.508359 271.030448 
L 111.819805 273.123336 
L 112.13125 275.998123 
L 112.442695 280.050969 
L 113.065586 290.734437 
L 113.999922 275.924487 
L 114.622812 271.019374 
L 115.245703 268.417987 
L 115.557148 267.695422 
L 115.868594 267.293092 
L 116.180039 267.189309 
L 116.491484 267.377834 
L 116.80293 267.866801 
L 117.114375 268.680537 
L 117.42582 269.865165 
L 118.048711 273.729967 
L 118.360156 276.823176 
L 118.671602 281.383305 
L 118.983047 289.190304 
L 119.294492 303.569483 
L 119.605937 288.930696 
L 119.917383 281.306239 
L 120.540273 273.810996 
L 121.163164 270.039413 
L 121.786055 268.098519 
L 122.0975 267.623265 
L 122.408945 267.435432 
L 122.720391 267.522977 
L 123.031836 267.886055 
L 123.343281 268.536545 
L 123.966172 270.814579 
L 124.589062 274.75598 
L 125.523398 282.824973 
L 125.834844 282.110891 
L 126.76918 273.729574 
L 127.39207 270.190057 
L 128.014961 268.180521 
L 128.326406 267.628753 
L 128.637852 267.345458 
L 128.949297 267.319956 
L 129.260742 267.551483 
L 129.572187 268.04929 
L 129.883633 268.834159 
L 130.506523 271.429087 
L 131.129414 275.942929 
L 132.06375 286.531939 
L 132.375195 284.723429 
L 132.998086 277.006007 
L 133.620977 272.162621 
L 134.243867 269.38528 
L 134.866758 267.977782 
L 135.178203 267.69046 
L 135.489648 267.659049 
L 135.801094 267.880472 
L 136.112539 268.361172 
L 136.423984 269.117715 
L 137.046875 271.5868 
L 137.669766 275.695085 
L 138.604102 283.259168 
L 138.915547 282.149101 
L 139.849883 274.048698 
L 140.472773 270.670101 
L 141.095664 268.74298 
L 141.407109 268.212783 
L 141.718555 267.939796 
L 142.03 267.913056 
L 142.341445 268.130046 
L 142.652891 268.596189 
L 142.964336 269.324968 
L 143.587227 271.666211 
L 144.210117 275.377368 
L 144.833008 279.831526 
L 145.144453 280.802472 
L 145.455898 279.844302 
L 146.70168 271.578475 
L 147.32457 269.158731 
L 147.947461 267.862406 
L 148.258906 267.580977 
L 148.570352 267.530071 
L 148.881797 267.70777 
L 149.193242 268.118756 
L 149.504687 268.774582 
L 150.127578 270.904392 
L 150.750469 274.319816 
L 151.684805 280.568397 
L 151.99625 280.634646 
L 152.307695 279.011663 
L 153.242031 272.734417 
L 153.864922 270.064711 
L 154.487812 268.566479 
L 154.799258 268.193893 
L 155.110703 268.052953 
L 155.422148 268.137139 
L 155.733594 268.445378 
L 156.045039 268.981229 
L 156.66793 270.763586 
L 157.29082 273.486437 
L 157.913711 276.543134 
L 158.225156 277.452355 
L 158.536602 277.383494 
L 158.848047 276.364722 
L 160.093828 270.469415 
L 160.716719 268.645679 
L 161.339609 267.725829 
L 161.651055 267.584972 
L 161.9625 267.651879 
L 162.273945 267.927358 
L 162.585391 268.415657 
L 163.208281 270.058909 
L 163.831172 272.602682 
L 164.765508 276.7543 
L 165.076953 277.069068 
L 165.388398 276.417579 
L 167.25707 268.768941 
L 167.879961 267.687679 
L 168.191406 267.4602 
L 168.502852 267.434688 
L 168.814297 267.6098 
L 169.125742 267.987138 
L 169.748633 269.364931 
L 170.371523 271.580802 
L 171.305859 275.620705 
L 171.617305 276.343547 
L 171.92875 276.259691 
L 172.240195 275.416054 
L 173.797422 269.452652 
L 174.420312 268.301971 
L 174.731758 268.049636 
L 175.043203 268.011893 
L 175.354648 268.192852 
L 175.666094 268.602118 
L 175.977539 269.256405 
L 176.60043 271.417037 
L 177.22332 275.062156 
L 177.846211 280.757602 
L 178.157656 283.872735 
L 178.469102 284.896926 
L 178.780547 282.662319 
L 179.403437 276.499164 
L 180.026328 272.313404 
L 180.649219 269.773153 
L 181.272109 268.405711 
L 181.583555 268.083283 
L 181.895 267.979793 
L 182.206445 268.086996 
L 182.517891 268.401332 
L 183.140781 269.651446 
L 183.763672 271.715831 
L 184.698008 275.555165 
L 185.009453 276.333602 
L 185.320898 276.409897 
L 185.632344 275.766157 
L 187.501016 269.49062 
L 187.812461 269.012253 
L 188.123906 268.739396 
L 188.435352 268.670775 
L 188.746797 268.807254 
L 189.058242 269.152606 
L 189.681133 270.499622 
L 190.304023 272.777122 
L 191.549805 278.396572 
L 191.86125 278.467303 
L 192.172695 277.555197 
L 193.729922 270.640484 
L 194.352812 269.2392 
L 194.664258 268.86761 
L 194.975703 268.704987 
L 195.287148 268.74716 
L 195.598594 268.993003 
L 195.910039 269.443849 
L 196.53293 270.967965 
L 197.15582 273.26305 
L 197.778711 275.779064 
L 198.090156 276.584524 
L 198.401602 276.691307 
L 198.713047 276.041118 
L 200.581719 269.144437 
L 201.204609 268.113719 
L 201.516055 267.88678 
L 201.8275 267.846854 
L 202.138945 267.991929 
L 202.450391 268.321401 
L 203.073281 269.531332 
L 203.696172 271.426011 
L 204.630508 274.611564 
L 204.941953 275.141207 
L 205.253398 275.092962 
L 205.564844 274.48728 
L 207.433516 268.876938 
L 208.056406 268.146539 
L 208.367852 268.056867 
L 208.679297 268.150447 
L 208.990742 268.427697 
L 209.613633 269.534185 
L 210.236523 271.336837 
L 211.170859 274.493728 
L 211.482305 275.068848 
L 211.79375 275.075704 
L 212.105195 274.505495 
L 213.039531 271.262005 
L 213.662422 269.36346 
L 214.285312 268.160905 
L 214.596758 267.839323 
L 214.908203 267.706231 
L 215.219648 267.764126 
L 215.531094 268.018032 
L 215.842539 268.476393 
L 216.46543 270.0614 
L 217.08832 272.670303 
L 218.334102 280.091155 
L 218.645547 280.513059 
L 218.956992 279.487199 
L 220.202773 272.590954 
L 220.825664 270.601405 
L 221.137109 270.00547 
L 221.448555 269.654005 
L 221.448555 269.654005 
" clip-path="url(#p208a100a4c)" style="fill: none; stroke: #ff0000; stroke-width: 1.5; stroke-linecap: square"/>
   </g>
   <g id="patch_14">
    <path d="M 62.3 303.64 
L 62.3 180.18 
" style="fill: none; stroke: #000000; stroke-width: 0.8; stroke-linejoin: miter; stroke-linecap: square"/>
   </g>
   <g id="patch_15">
    <path d="M 221.76 303.64 
L 221.76 180.18 
" style="fill: none; stroke: #000000; stroke-width: 0.8; stroke-linejoin: miter; stroke-linecap: square"/>
   </g>
   <g id="patch_16">
    <path d="M 62.3 303.64 
L 221.76 303.64 
" style="fill: none; stroke: #000000; stroke-width: 0.8; stroke-linejoin: miter; stroke-linecap: square"/>
   </g>
   <g id="patch_17">
    <path d="M 62.3 180.18 
L 221.76 180.18 
" style="fill: none; stroke: #000000; stroke-width: 0.8; stroke-linejoin: miter; stroke-linecap: square"/>
   </g>
  </g>
  <g id="axes_4">
   <g id="patch_18">
    <path d="M 282.62 303.64 
L 442.08 303.64 
L 442.08 180.18 
L 282.62 180.18 
z
" style="fill: #ffffff"/>
   </g>
   <g id="PolyCollection_4">
    <path d="M 301.7552 147.205294 
L 301.7552 793.012421 
L 314.512 793.012421 
L 314.512 147.205294 
L 314.512 147.205294 
L 301.7552 147.205294 
z
" clip-path="url(#p14a1a7ab27)" style="fill: #ffeeaa; stroke: #ffeeaa"/>
   </g>
   <g id="matplotlib.axis_7">
    <g id="xtick_17">
     <g id="line2d_73">
      <path d="M 282.62 303.64 
L 282.62 180.18 
" clip-path="url(#p14a1a7ab27)" style="fill: none; stroke: #808080; stroke-width: 0.8; stroke-linecap: square"/>
     </g>
     <g id="line2d_74">
      <g>
       <use xlink:href="#m99013d89cc" x="282.62" y="303.64" style="stroke: #000000; stroke-width: 0.8"/>
      </g>
     </g>
     <g id="text_42">
      <!-- 0.0 -->
      <g transform="translate(274.668437 318.238437) scale(0.1 -0.1)">
       <use xlink:href="#DejaVuSans-30"/>
       <use xlink:href="#DejaVuSans-2e" x="63.623047"/>
       <use xlink:href="#DejaVuSans-30" x="95.410156"/>
      </g>
     </g>
    </g>
    <g id="xtick_18">
     <g id="line2d_75">
      <path d="M 314.512 303.64 
L 314.512 180.18 
" clip-path="url(#p14a1a7ab27)" style="fill: none; stroke: #808080; stroke-width: 0.8; stroke-linecap: square"/>
     </g>
     <g id="line2d_76">
      <g>
       <use xlink:href="#m99013d89cc" x="314.512" y="303.64" style="stroke: #000000; stroke-width: 0.8"/>
      </g>
     </g>
     <g id="text_43">
      <!-- 0.2 -->
      <g transform="translate(306.560437 318.238437) scale(0.1 -0.1)">
       <use xlink:href="#DejaVuSans-30"/>
       <use xlink:href="#DejaVuSans-2e" x="63.623047"/>
       <use xlink:href="#DejaVuSans-32" x="95.410156"/>
      </g>
     </g>
    </g>
    <g id="xtick_19">
     <g id="line2d_77">
      <path d="M 346.404 303.64 
L 346.404 180.18 
" clip-path="url(#p14a1a7ab27)" style="fill: none; stroke: #808080; stroke-width: 0.8; stroke-linecap: square"/>
     </g>
     <g id="line2d_78">
      <g>
       <use xlink:href="#m99013d89cc" x="346.404" y="303.64" style="stroke: #000000; stroke-width: 0.8"/>
      </g>
     </g>
     <g id="text_44">
      <!-- 0.4 -->
      <g transform="translate(338.452437 318.238437) scale(0.1 -0.1)">
       <use xlink:href="#DejaVuSans-30"/>
       <use xlink:href="#DejaVuSans-2e" x="63.623047"/>
       <use xlink:href="#DejaVuSans-34" x="95.410156"/>
      </g>
     </g>
    </g>
    <g id="xtick_20">
     <g id="line2d_79">
      <path d="M 378.296 303.64 
L 378.296 180.18 
" clip-path="url(#p14a1a7ab27)" style="fill: none; stroke: #808080; stroke-width: 0.8; stroke-linecap: square"/>
     </g>
     <g id="line2d_80">
      <g>
       <use xlink:href="#m99013d89cc" x="378.296" y="303.64" style="stroke: #000000; stroke-width: 0.8"/>
      </g>
     </g>
     <g id="text_45">
      <!-- 0.6 -->
      <g transform="translate(370.344437 318.238437) scale(0.1 -0.1)">
       <use xlink:href="#DejaVuSans-30"/>
       <use xlink:href="#DejaVuSans-2e" x="63.623047"/>
       <use xlink:href="#DejaVuSans-36" x="95.410156"/>
      </g>
     </g>
    </g>
    <g id="xtick_21">
     <g id="line2d_81">
      <path d="M 410.188 303.64 
L 410.188 180.18 
" clip-path="url(#p14a1a7ab27)" style="fill: none; stroke: #808080; stroke-width: 0.8; stroke-linecap: square"/>
     </g>
     <g id="line2d_82">
      <g>
       <use xlink:href="#m99013d89cc" x="410.188" y="303.64" style="stroke: #000000; stroke-width: 0.8"/>
      </g>
     </g>
     <g id="text_46">
      <!-- 0.8 -->
      <g transform="translate(402.236437 318.238437) scale(0.1 -0.1)">
       <use xlink:href="#DejaVuSans-30"/>
       <use xlink:href="#DejaVuSans-2e" x="63.623047"/>
       <use xlink:href="#DejaVuSans-38" x="95.410156"/>
      </g>
     </g>
    </g>
    <g id="xtick_22">
     <g id="line2d_83">
      <path d="M 442.08 303.64 
L 442.08 180.18 
" clip-path="url(#p14a1a7ab27)" style="fill: none; stroke: #808080; stroke-width: 0.8; stroke-linecap: square"/>
     </g>
     <g id="line2d_84">
      <g>
       <use xlink:href="#m99013d89cc" x="442.08" y="303.64" style="stroke: #000000; stroke-width: 0.8"/>
      </g>
     </g>
     <g id="text_47">
      <!-- 1.0 -->
      <g transform="translate(434.128437 318.238437) scale(0.1 -0.1)">
       <use xlink:href="#DejaVuSans-31"/>
       <use xlink:href="#DejaVuSans-2e" x="63.623047"/>
       <use xlink:href="#DejaVuSans-30" x="95.410156"/>
      </g>
     </g>
    </g>
    <g id="text_48">
     <!-- Frequency -->
     <g transform="translate(336.520312 331.916562) scale(0.1 -0.1)">
      <use xlink:href="#DejaVuSans-46"/>
      <use xlink:href="#DejaVuSans-72" x="50.269531"/>
      <use xlink:href="#DejaVuSans-65" x="89.132812"/>
      <use xlink:href="#DejaVuSans-71" x="150.65625"/>
      <use xlink:href="#DejaVuSans-75" x="214.132812"/>
      <use xlink:href="#DejaVuSans-65" x="277.511719"/>
      <use xlink:href="#DejaVuSans-6e" x="339.035156"/>
      <use xlink:href="#DejaVuSans-63" x="402.414062"/>
      <use xlink:href="#DejaVuSans-79" x="457.394531"/>
     </g>
    </g>
   </g>
   <g id="matplotlib.axis_8">
    <g id="ytick_17">
     <g id="line2d_85">
      <path d="M 282.62 303.64 
L 442.08 303.64 
" clip-path="url(#p14a1a7ab27)" style="fill: none; stroke: #808080; stroke-width: 0.8; stroke-linecap: square"/>
     </g>
     <g id="line2d_86">
      <g>
       <use xlink:href="#m7b93ee9252" x="282.62" y="303.64" style="stroke: #000000; stroke-width: 0.8"/>
      </g>
     </g>
     <g id="text_49">
      <!-- −60 -->
      <g transform="translate(254.515312 307.439219) scale(0.1 -0.1)">
       <use xlink:href="#DejaVuSans-2212"/>
       <use xlink:href="#DejaVuSans-36" x="83.789062"/>
       <use xlink:href="#DejaVuSans-30" x="147.412109"/>
      </g>
     </g>
    </g>
    <g id="ytick_18">
     <g id="line2d_87">
      <path d="M 282.62 283.063333 
L 442.08 283.063333 
" clip-path="url(#p14a1a7ab27)" style="fill: none; stroke: #808080; stroke-width: 0.8; stroke-linecap: square"/>
     </g>
     <g id="line2d_88">
      <g>
       <use xlink:href="#m7b93ee9252" x="282.62" y="283.063333" style="stroke: #000000; stroke-width: 0.8"/>
      </g>
     </g>
     <g id="text_50">
      <!-- −40 -->
      <g transform="translate(254.515312 286.862552) scale(0.1 -0.1)">
       <use xlink:href="#DejaVuSans-2212"/>
       <use xlink:href="#DejaVuSans-34" x="83.789062"/>
       <use xlink:href="#DejaVuSans-30" x="147.412109"/>
      </g>
     </g>
    </g>
    <g id="ytick_19">
     <g id="line2d_89">
      <path d="M 282.62 262.486667 
L 442.08 262.486667 
" clip-path="url(#p14a1a7ab27)" style="fill: none; stroke: #808080; stroke-width: 0.8; stroke-linecap: square"/>
     </g>
     <g id="line2d_90">
      <g>
       <use xlink:href="#m7b93ee9252" x="282.62" y="262.486667" style="stroke: #000000; stroke-width: 0.8"/>
      </g>
     </g>
     <g id="text_51">
      <!-- −20 -->
      <g transform="translate(254.515312 266.285885) scale(0.1 -0.1)">
       <use xlink:href="#DejaVuSans-2212"/>
       <use xlink:href="#DejaVuSans-32" x="83.789062"/>
       <use xlink:href="#DejaVuSans-30" x="147.412109"/>
      </g>
     </g>
    </g>
    <g id="ytick_20">
     <g id="line2d_91">
      <path d="M 282.62 241.91 
L 442.08 241.91 
" clip-path="url(#p14a1a7ab27)" style="fill: none; stroke: #808080; stroke-width: 0.8; stroke-linecap: square"/>
     </g>
     <g id="line2d_92">
      <g>
       <use xlink:href="#m7b93ee9252" x="282.62" y="241.91" style="stroke: #000000; stroke-width: 0.8"/>
      </g>
     </g>
     <g id="text_52">
      <!-- 0 -->
      <g transform="translate(269.2575 245.709219) scale(0.1 -0.1)">
       <use xlink:href="#DejaVuSans-30"/>
      </g>
     </g>
    </g>
    <g id="ytick_21">
     <g id="line2d_93">
      <path d="M 282.62 221.333333 
L 442.08 221.333333 
" clip-path="url(#p14a1a7ab27)" style="fill: none; stroke: #808080; stroke-width: 0.8; stroke-linecap: square"/>
     </g>
     <g id="line2d_94">
      <g>
       <use xlink:href="#m7b93ee9252" x="282.62" y="221.333333" style="stroke: #000000; stroke-width: 0.8"/>
      </g>
     </g>
     <g id="text_53">
      <!-- 20 -->
      <g transform="translate(262.895 225.132552) scale(0.1 -0.1)">
       <use xlink:href="#DejaVuSans-32"/>
       <use xlink:href="#DejaVuSans-30" x="63.623047"/>
      </g>
     </g>
    </g>
    <g id="ytick_22">
     <g id="line2d_95">
      <path d="M 282.62 200.756667 
L 442.08 200.756667 
" clip-path="url(#p14a1a7ab27)" style="fill: none; stroke: #808080; stroke-width: 0.8; stroke-linecap: square"/>
     </g>
     <g id="line2d_96">
      <g>
       <use xlink:href="#m7b93ee9252" x="282.62" y="200.756667" style="stroke: #000000; stroke-width: 0.8"/>
      </g>
     </g>
     <g id="text_54">
      <!-- 40 -->
      <g transform="translate(262.895 204.555885) scale(0.1 -0.1)">
       <use xlink:href="#DejaVuSans-34"/>
       <use xlink:href="#DejaVuSans-30" x="63.623047"/>
      </g>
     </g>
    </g>
    <g id="ytick_23">
     <g id="line2d_97">
      <path d="M 282.62 180.18 
L 442.08 180.18 
" clip-path="url(#p14a1a7ab27)" style="fill: none; stroke: #808080; stroke-width: 0.8; stroke-linecap: square"/>
     </g>
     <g id="line2d_98">
      <g>
       <use xlink:href="#m7b93ee9252" x="282.62" y="180.18" style="stroke: #000000; stroke-width: 0.8"/>
      </g>
     </g>
     <g id="text_55">
      <!-- 60 -->
      <g transform="translate(262.895 183.979219) scale(0.1 -0.1)">
       <use xlink:href="#DejaVuSans-36"/>
       <use xlink:href="#DejaVuSans-30" x="63.623047"/>
      </g>
     </g>
    </g>
    <g id="text_56">
     <!-- Group delay -->
     <g transform="translate(248.435625 272.381875) rotate(-90) scale(0.1 -0.1)">
      <defs>
       <path id="DejaVuSans-47" d="M 3809 666 
L 3809 1919 
L 2778 1919 
L 2778 2438 
L 4434 2438 
L 4434 434 
Q 4069 175 3628 42 
Q 3188 -91 2688 -91 
Q 1594 -91 976 548 
Q 359 1188 359 2328 
Q 359 3472 976 4111 
Q 1594 4750 2688 4750 
Q 3144 4750 3555 4637 
Q 3966 4525 4313 4306 
L 4313 3634 
Q 3963 3931 3569 4081 
Q 3175 4231 2741 4231 
Q 1884 4231 1454 3753 
Q 1025 3275 1025 2328 
Q 1025 1384 1454 906 
Q 1884 428 2741 428 
Q 3075 428 3337 486 
Q 3600 544 3809 666 
z
" transform="scale(0.015625)"/>
       <path id="DejaVuSans-6f" d="M 1959 3097 
Q 1497 3097 1228 2736 
Q 959 2375 959 1747 
Q 959 1119 1226 758 
Q 1494 397 1959 397 
Q 2419 397 2687 759 
Q 2956 1122 2956 1747 
Q 2956 2369 2687 2733 
Q 2419 3097 1959 3097 
z
M 1959 3584 
Q 2709 3584 3137 3096 
Q 3566 2609 3566 1747 
Q 3566 888 3137 398 
Q 2709 -91 1959 -91 
Q 1206 -91 779 398 
Q 353 888 353 1747 
Q 353 2609 779 3096 
Q 1206 3584 1959 3584 
z
" transform="scale(0.015625)"/>
      </defs>
      <use xlink:href="#DejaVuSans-47"/>
      <use xlink:href="#DejaVuSans-72" x="77.490234"/>
      <use xlink:href="#DejaVuSans-6f" x="116.353516"/>
      <use xlink:href="#DejaVuSans-75" x="177.535156"/>
      <use xlink:href="#DejaVuSans-70" x="240.914062"/>
      <use xlink:href="#DejaVuSans-20" x="304.390625"/>
      <use xlink:href="#DejaVuSans-64" x="336.177734"/>
      <use xlink:href="#DejaVuSans-65" x="399.654297"/>
      <use xlink:href="#DejaVuSans-6c" x="461.177734"/>
      <use xlink:href="#DejaVuSans-61" x="488.960938"/>
      <use xlink:href="#DejaVuSans-79" x="550.240234"/>
     </g>
    </g>
   </g>
   <g id="line2d_99">
    <path d="M 282.62 235.879605 
L 284.800117 235.76712 
L 287.91457 235.364376 
L 292.897695 234.589081 
L 295.077812 234.435679 
L 296.012148 234.130588 
L 296.946484 233.539766 
L 297.88082 232.653951 
L 299.438047 230.758301 
L 301.618164 228.110523 
L 302.863945 226.892175 
L 304.109727 225.933201 
L 305.355508 225.218331 
L 306.601289 224.728519 
L 307.84707 224.459459 
L 309.092852 224.439604 
L 310.027187 224.643892 
L 310.650078 224.935344 
L 311.272969 225.419697 
L 311.895859 226.222132 
L 312.51875 227.628129 
L 312.830195 228.761728 
L 313.141641 230.432934 
L 313.453086 233.075044 
L 313.764531 237.685896 
L 314.075977 246.957661 
L 314.387422 269.671412 
L 314.785506 346.6 
M 315.132057 346.6 
L 315.321758 295.850332 
L 315.633203 260.161447 
L 315.944648 248.786789 
L 316.256094 245.585368 
L 316.567539 246.122641 
L 316.878984 249.08707 
L 317.501875 260.169578 
L 317.81332 265.971512 
L 318.124766 268.751533 
L 318.436211 266.888886 
L 319.681992 247.113133 
L 319.993437 245.129785 
L 320.304883 244.552834 
L 320.616328 245.344537 
L 320.927773 247.59518 
L 321.239219 251.496241 
L 322.485 273.068412 
L 322.796445 270.019375 
L 323.730781 250.643572 
L 324.353672 243.782509 
L 324.665117 242.10195 
L 324.976562 241.218298 
L 325.288008 240.931324 
L 325.599453 241.085046 
L 326.222344 242.175952 
L 326.845234 243.388036 
L 327.15668 243.686189 
L 327.468125 243.633939 
L 327.77957 243.191179 
L 328.402461 241.300485 
L 329.959687 235.229707 
L 330.582578 233.651343 
L 331.205469 232.807208 
L 331.516914 232.683795 
L 331.828359 232.785886 
L 332.139805 233.152756 
L 332.45125 233.851842 
L 332.762695 234.99881 
L 333.074141 236.796169 
L 333.385586 239.611741 
L 333.697031 244.144462 
L 334.008477 251.769868 
L 334.319922 265.090453 
L 334.942812 310.486738 
L 335.254258 306.567588 
L 335.877148 264.368893 
L 336.188594 254.266145 
L 336.500039 248.997222 
L 336.811484 246.298562 
L 337.12293 244.967986 
L 337.434375 244.345573 
L 338.368711 243.42207 
L 338.991602 242.134406 
L 341.171719 236.058271 
L 341.483164 235.71356 
L 341.794609 235.59147 
L 342.106055 235.711185 
L 342.4175 236.093483 
L 342.728945 236.761 
L 343.351836 239.031974 
L 343.974727 242.514811 
L 344.909062 247.934989 
L 345.220508 248.689757 
L 345.531953 248.485052 
L 345.843398 247.334541 
L 346.466289 243.230845 
L 347.400625 236.853182 
L 348.023516 233.970578 
L 348.646406 232.295704 
L 348.957852 231.89266 
L 349.269297 231.793109 
L 349.580742 232.037756 
L 349.892187 232.707742 
L 350.203633 233.950012 
L 350.515078 236.02409 
L 350.826523 239.388257 
L 351.137969 244.845141 
L 351.449414 253.690742 
L 352.38375 290.363173 
L 352.695195 279.796952 
L 353.318086 250.847699 
L 353.629531 242.771484 
L 353.940977 237.735947 
L 354.252422 234.558927 
L 354.563867 232.530593 
L 354.875312 231.24677 
L 355.186758 230.477851 
L 355.498203 230.094142 
L 355.809648 230.026152 
L 356.121094 230.244041 
L 356.432539 230.747675 
L 356.743984 231.562875 
L 357.05543 232.741466 
L 357.67832 236.53543 
L 358.301211 243.011586 
L 359.235547 256.399577 
L 359.546992 258.72381 
L 359.858437 258.162827 
L 360.169883 255.021612 
L 361.104219 242.248427 
L 361.727109 236.891338 
L 362.35 234.094573 
L 362.661445 233.386525 
L 362.972891 233.040899 
L 363.284336 233.014884 
L 363.595781 233.285082 
L 363.907227 233.843234 
L 364.530117 235.838709 
L 365.153008 239.028839 
L 366.398789 246.88026 
L 366.710234 247.964273 
L 367.02168 248.221889 
L 367.333125 247.638545 
L 367.956016 244.788958 
L 368.578906 241.603228 
L 369.201797 239.613837 
L 369.513242 239.28443 
L 369.824687 239.46869 
L 370.136133 240.226317 
L 370.447578 241.633192 
L 370.759023 243.773386 
L 371.381914 250.342919 
L 372.004805 257.835859 
L 372.31625 259.700359 
L 372.627695 259.107429 
L 372.939141 256.262334 
L 374.184922 241.337054 
L 374.807812 237.468794 
L 375.119258 236.390539 
L 375.430703 235.769613 
L 375.742148 235.546921 
L 376.053594 235.683234 
L 376.365039 236.154079 
L 376.98793 238.030857 
L 377.922266 242.580944 
L 378.545156 245.356951 
L 378.856602 246.03726 
L 379.168047 246.017766 
L 379.479492 245.286017 
L 380.102383 242.298997 
L 381.036719 237.110898 
L 381.659609 234.579883 
L 382.2825 233.029577 
L 382.593945 232.609239 
L 382.905391 232.419799 
L 383.216836 232.464941 
L 383.528281 232.757587 
L 383.839727 233.321876 
L 384.151172 234.194949 
L 384.774062 237.084646 
L 385.396953 241.921038 
L 386.642734 254.662767 
L 386.95418 255.675507 
L 387.265625 254.839485 
L 387.888516 249.567663 
L 388.511406 244.148518 
L 388.822852 242.33615 
L 389.134297 241.240097 
L 389.445742 240.863604 
L 389.757187 241.205384 
L 390.068633 242.273135 
L 390.380078 244.068414 
L 391.002969 249.473007 
L 391.625859 254.574747 
L 391.937305 255.16841 
L 392.24875 253.822751 
L 392.871641 247.150371 
L 393.805977 236.963143 
L 394.428867 232.616189 
L 395.051758 229.801124 
L 395.674648 227.984571 
L 396.297539 226.820621 
L 396.92043 226.118392 
L 397.54332 225.813265 
L 397.854766 225.837721 
L 398.166211 226.050813 
L 398.477656 226.624401 
L 398.789102 228.129258 
L 399.100547 233.419014 
L 399.723437 340.634574 
L 400.034883 235.909004 
L 400.346328 229.061851 
L 400.657773 227.443143 
L 400.969219 226.982572 
L 401.280664 226.956707 
L 401.592109 227.163392 
L 402.215 228.054041 
L 402.837891 229.554835 
L 403.460781 231.833141 
L 404.083672 235.199401 
L 404.706562 239.973442 
L 405.952344 250.979696 
L 406.263789 252.060022 
L 406.575234 251.812932 
L 406.88668 250.425107 
L 408.132461 242.408863 
L 408.443906 241.21749 
L 408.755352 240.505399 
L 409.066797 240.252075 
L 409.378242 240.425138 
L 409.689687 240.984914 
L 410.312578 243.031207 
L 411.246914 246.6506 
L 411.558359 247.273567 
L 411.869805 247.319636 
L 412.18125 246.750411 
L 412.804141 244.192407 
L 414.049922 238.130375 
L 414.672812 236.15484 
L 415.295703 235.038095 
L 415.607148 234.772556 
L 415.918594 234.685659 
L 416.230039 234.76705 
L 416.541484 235.008109 
L 417.164375 235.938576 
L 417.787266 237.402361 
L 419.967383 243.371803 
L 420.278828 243.692747 
L 420.590273 243.788537 
L 420.901719 243.685358 
L 421.524609 243.085027 
L 422.458945 242.03374 
L 423.081836 241.640179 
L 423.704727 241.519421 
L 424.639062 241.443564 
L 425.261953 241.123355 
L 425.884844 240.439536 
L 426.81918 238.917915 
L 427.753516 237.435481 
L 428.376406 236.818732 
L 428.687852 236.682443 
L 428.999297 236.682948 
L 429.310742 236.835864 
L 429.622187 237.156804 
L 430.245078 238.364383 
L 430.867969 240.403437 
L 431.802305 244.800125 
L 432.425195 247.677713 
L 432.736641 248.628896 
L 433.048086 249.047626 
L 433.359531 248.875633 
L 433.670977 248.167464 
L 434.293867 245.764654 
L 435.228203 242.124042 
L 435.851094 240.685113 
L 436.162539 240.322264 
L 436.473984 240.185515 
L 436.78543 240.257573 
L 437.096875 240.516412 
L 437.719766 241.479882 
L 439.276992 244.473718 
L 439.588437 244.782729 
L 439.899883 244.926395 
L 440.211328 244.916256 
L 440.834219 244.579866 
L 441.768555 244.014105 
L 441.768555 244.014105 
" clip-path="url(#p14a1a7ab27)" style="fill: none; stroke: #000000; stroke-width: 1.5; stroke-linecap: square"/>
   </g>
   <g id="line2d_100">
    <path d="M 282.62 233.402911 
L 283.242891 233.482109 
L 284.177227 233.864103 
L 286.357344 235.00128 
L 286.980234 235.047725 
L 287.603125 234.884457 
L 288.537461 234.311497 
L 290.717578 232.73872 
L 291.651914 232.465706 
L 292.58625 232.521737 
L 295.077812 233.11034 
L 295.700703 232.929541 
L 296.323594 232.495833 
L 297.25793 231.409218 
L 298.815156 228.989374 
L 300.372383 226.675589 
L 301.618164 225.194786 
L 302.863945 224.046988 
L 304.109727 223.169783 
L 305.666953 222.356313 
L 307.535625 221.671315 
L 309.715742 221.145614 
L 311.895859 220.842936 
L 314.075977 220.578682 
L 314.387422 220.118322 
L 314.698867 216.218584 
L 315.010312 176.560164 
L 315.321758 219.781611 
L 315.633203 221.405701 
L 316.256094 223.552289 
L 316.567539 225.814215 
L 316.878984 231.171787 
L 317.19043 249.776919 
L 317.392751 346.6 
M 317.875848 346.6 
L 318.124766 247.440498 
L 318.436211 230.765184 
L 318.747656 225.863447 
L 319.059102 223.852472 
L 319.370547 222.89802 
L 319.681992 222.447843 
L 319.993437 222.310962 
L 320.304883 222.446032 
L 320.616328 222.92851 
L 320.927773 224.040588 
L 321.239219 226.705115 
L 321.550664 234.957454 
L 321.862109 285.493414 
L 321.917209 346.6 
M 322.407915 346.6 
L 322.485 253.091574 
L 322.796445 230.608411 
L 323.107891 225.451509 
L 323.419336 223.568793 
L 323.730781 222.74774 
L 324.042227 222.397285 
L 324.353672 222.317416 
L 324.665117 222.441737 
L 324.976562 222.769497 
L 325.288008 223.354143 
L 325.599453 224.325482 
L 325.910898 225.963556 
L 326.222344 228.90886 
L 326.533789 234.834293 
L 326.845234 249.058177 
L 327.15668 292.525873 
L 327.322162 346.6 
M 327.660117 346.6 
L 328.091016 256.419928 
L 328.402461 237.600069 
L 328.713906 230.260146 
L 329.025352 226.786462 
L 329.336797 224.933675 
L 329.648242 223.884313 
L 329.959687 223.294279 
L 330.271133 223.008458 
L 330.582578 222.962759 
L 330.894023 223.150484 
L 331.205469 223.619635 
L 331.516914 224.499048 
L 331.828359 226.079779 
L 332.139805 229.052579 
L 332.45125 235.303312 
L 332.762695 251.243657 
L 333.074141 304.797248 
L 333.194577 346.6 
M 333.570769 346.6 
L 333.697031 301.396671 
L 334.008477 250.207203 
L 334.319922 234.783098 
L 334.631367 228.632949 
L 334.942812 225.640445 
L 335.254258 223.986176 
L 335.877148 222.371281 
L 336.500039 221.737331 
L 337.12293 221.614505 
L 337.434375 221.732726 
L 337.74582 222.019767 
L 338.057266 222.585241 
L 338.368711 223.703308 
L 338.680156 226.179473 
L 338.991602 233.228406 
L 339.303047 268.84774 
L 339.351986 346.6 
M 339.875772 346.6 
L 339.925937 266.524924 
L 340.237383 233.030512 
L 340.548828 226.296974 
L 340.860273 223.964219 
L 341.171719 222.960603 
L 341.483164 222.510449 
L 341.794609 222.351475 
L 342.106055 222.382805 
L 342.4175 222.569131 
L 342.728945 222.910584 
L 343.040391 223.435334 
L 343.351836 224.204407 
L 343.663281 225.329228 
L 343.974727 227.011037 
L 344.286172 229.627172 
L 344.597617 233.927505 
L 344.909062 241.494526 
L 345.220508 255.701922 
L 345.843398 310.761958 
L 346.154844 300.253098 
L 346.777734 248.56522 
L 347.08918 237.944178 
L 347.400625 232.193127 
L 347.71207 228.877053 
L 348.023516 226.866867 
L 348.334961 225.617888 
L 348.646406 224.853637 
L 348.957852 224.430839 
L 349.269297 224.280378 
L 349.580742 224.382701 
L 349.892187 224.762403 
L 350.203633 225.499453 
L 350.515078 226.765524 
L 350.826523 228.9149 
L 351.137969 232.718447 
L 351.449414 240.022723 
L 351.760859 255.740928 
L 352.072305 292.171205 
L 352.38375 342.404925 
L 352.695195 309.823895 
L 353.006641 264.20871 
L 353.318086 243.749827 
L 353.629531 234.595642 
L 353.940977 229.997877 
L 354.252422 227.467544 
L 354.563867 226.00135 
L 354.875312 225.150492 
L 355.186758 224.699748 
L 355.498203 224.545885 
L 355.809648 224.648786 
L 356.121094 225.01364 
L 356.432539 225.690765 
L 356.743984 226.792014 
L 357.05543 228.533063 
L 357.366875 231.328986 
L 357.67832 236.011963 
L 357.989766 244.325927 
L 358.301211 259.81899 
L 358.924102 310.334732 
L 359.235547 294.555569 
L 359.546992 265.605021 
L 359.858437 247.596924 
L 360.169883 237.995545 
L 360.481328 232.7179 
L 360.792773 229.662753 
L 361.104219 227.835104 
L 361.415664 226.748117 
L 361.727109 226.155254 
L 362.038555 225.933855 
L 362.35 226.034444 
L 362.661445 226.461294 
L 362.972891 227.271867 
L 363.284336 228.593859 
L 363.595781 230.667706 
L 363.907227 233.935025 
L 364.218672 239.210293 
L 364.530117 247.950326 
L 365.464453 292.911542 
L 365.775898 281.925239 
L 366.398789 248.286873 
L 366.710234 239.505278 
L 367.02168 234.22515 
L 367.333125 230.975413 
L 367.64457 228.932348 
L 367.956016 227.649217 
L 368.267461 226.88239 
L 368.578906 226.501313 
L 368.890352 226.444534 
L 369.201797 226.700521 
L 369.513242 227.304081 
L 369.824687 228.346654 
L 370.136133 230.00523 
L 370.447578 232.603553 
L 370.759023 236.733248 
L 371.070469 243.469466 
L 371.381914 254.58125 
L 372.004805 289.091305 
L 372.31625 289.624023 
L 373.250586 244.152488 
L 373.562031 237.377454 
L 373.873477 233.279521 
L 374.184922 230.761077 
L 374.496367 229.220161 
L 374.807812 228.33126 
L 375.119258 227.921535 
L 375.430703 227.908798 
L 375.742148 228.273072 
L 376.053594 229.047666 
L 376.365039 230.324492 
L 376.676484 232.273391 
L 376.98793 235.177271 
L 377.299375 239.477573 
L 377.61082 245.778278 
L 378.545156 273.091141 
L 378.856602 272.614704 
L 380.102383 239.235034 
L 380.725273 232.460967 
L 381.036719 230.674234 
L 381.348164 229.54548 
L 381.659609 228.914955 
L 381.971055 228.697187 
L 382.2825 228.861782 
L 382.593945 229.426388 
L 382.905391 230.460153 
L 383.216836 232.098177 
L 383.528281 234.568687 
L 383.839727 238.230583 
L 384.151172 243.591833 
L 384.774062 260.768516 
L 385.085508 269.739578 
L 385.396953 272.603104 
L 385.708398 266.969423 
L 386.331289 248.260214 
L 386.95418 236.84711 
L 387.57707 231.551403 
L 387.888516 230.167034 
L 388.199961 229.330608 
L 388.511406 228.931989 
L 388.822852 228.919527 
L 389.134297 229.288726 
L 389.445742 230.080531 
L 389.757187 231.388466 
L 390.068633 233.374784 
L 390.380078 236.293834 
L 390.691523 240.507425 
L 391.314414 254.168072 
L 391.937305 268.250442 
L 392.24875 267.316354 
L 393.805977 234.927481 
L 394.428867 230.186139 
L 395.051758 227.951048 
L 395.363203 227.426687 
L 395.674648 227.227102 
L 395.986094 227.354337 
L 396.297539 227.85997 
L 396.608984 228.868195 
L 396.92043 230.631227 
L 397.231875 233.657877 
L 397.54332 239.022103 
L 397.854766 249.10809 
L 398.166211 268.947029 
L 398.477656 302.414258 
L 398.789102 317.809741 
L 399.411992 258.979668 
L 399.723437 244.057444 
L 400.034883 236.383177 
L 400.346328 232.190592 
L 400.657773 229.780321 
L 400.969219 228.372234 
L 401.280664 227.587518 
L 401.592109 227.235812 
L 401.903555 227.224764 
L 402.215 227.520539 
L 402.526445 228.13176 
L 402.837891 229.106191 
L 403.149336 230.536257 
L 403.460781 232.572085 
L 403.772227 235.43929 
L 404.083672 239.44772 
L 404.706562 252.012794 
L 405.329453 265.606865 
L 405.640898 266.019669 
L 405.952344 260.796342 
L 406.88668 240.548509 
L 407.50957 233.74605 
L 408.132461 230.591464 
L 408.443906 229.867072 
L 408.755352 229.582831 
L 409.066797 229.711599 
L 409.378242 230.276225 
L 409.689687 231.35621 
L 410.001133 233.106348 
L 410.312578 235.790265 
L 410.624023 239.825733 
L 410.935469 245.799687 
L 411.869805 273.250844 
L 412.18125 273.894652 
L 412.804141 255.563057 
L 413.427031 240.540597 
L 414.049922 233.48587 
L 414.361367 231.644603 
L 414.672812 230.498963 
L 414.984258 229.881547 
L 415.295703 229.703342 
L 415.607148 229.933164 
L 415.918594 230.589418 
L 416.230039 231.74182 
L 416.541484 233.521991 
L 416.85293 236.140841 
L 417.164375 239.901558 
L 417.787266 252.106629 
L 418.410156 266.438436 
L 418.721602 267.59299 
L 419.033047 262.700923 
L 419.967383 241.718256 
L 420.590273 234.578859 
L 421.213164 231.264283 
L 421.524609 230.482434 
L 421.836055 230.136425 
L 422.1475 230.18163 
L 422.458945 230.614972 
L 422.770391 231.472943 
L 423.081836 232.834999 
L 423.393281 234.830416 
L 423.704727 237.642341 
L 424.327617 246.525967 
L 424.950508 258.553639 
L 425.261953 262.338278 
L 425.573398 261.920956 
L 425.884844 257.561022 
L 426.81918 240.866206 
L 427.44207 234.722416 
L 428.064961 231.780245 
L 428.376406 231.125935 
L 428.687852 230.914284 
L 428.999297 231.125498 
L 429.310742 231.781676 
L 429.622187 232.949392 
L 429.933633 234.746038 
L 430.245078 237.344943 
L 430.867969 245.774957 
L 431.802305 261.944224 
L 432.11375 262.073142 
L 432.425195 258.020034 
L 433.359531 240.734646 
L 433.982422 234.013261 
L 434.605312 230.495508 
L 434.916758 229.511678 
L 435.228203 228.91545 
L 435.539648 228.662536 
L 435.851094 228.745458 
L 436.162539 229.195864 
L 436.473984 230.095345 
L 436.78543 231.599607 
L 437.096875 233.985286 
L 437.40832 237.733976 
L 437.719766 243.658419 
L 438.031211 252.953843 
L 438.654102 280.630795 
L 438.965547 284.412203 
L 439.588437 258.6784 
L 440.211328 240.025941 
L 440.522773 235.359648 
L 440.834219 232.390385 
L 441.145664 230.5019 
L 441.457109 229.339948 
L 441.768555 228.708012 
L 441.768555 228.708012 
" clip-path="url(#p14a1a7ab27)" style="fill: none; stroke: #ff0000; stroke-width: 1.5; stroke-linecap: square"/>
   </g>
   <g id="patch_19">
    <path d="M 282.62 303.64 
L 282.62 180.18 
" style="fill: none; stroke: #000000; stroke-width: 0.8; stroke-linejoin: miter; stroke-linecap: square"/>
   </g>
   <g id="patch_20">
    <path d="M 442.08 303.64 
L 442.08 180.18 
" style="fill: none; stroke: #000000; stroke-width: 0.8; stroke-linejoin: miter; stroke-linecap: square"/>
   </g>
   <g id="patch_21">
    <path d="M 282.62 303.64 
L 442.08 303.64 
" style="fill: none; stroke: #000000; stroke-width: 0.8; stroke-linejoin: miter; stroke-linecap: square"/>
   </g>
   <g id="patch_22">
    <path d="M 282.62 180.18 
L 442.08 180.18 
" style="fill: none; stroke: #000000; stroke-width: 0.8; stroke-linejoin: miter; stroke-linecap: square"/>
   </g>
  </g>
 </g>
 <defs>
  <clipPath id="p3dae7b9e35">
   <rect x="62.3" y="10.8" width="159.46" height="123.46"/>
  </clipPath>
  <clipPath id="padcae5491c">
   <rect x="282.62" y="10.8" width="159.46" height="123.46"/>
  </clipPath>
  <clipPath id="p208a100a4c">
   <rect x="62.3" y="180.18" width="159.46" height="123.46"/>
  </clipPath>
  <clipPath id="p14a1a7ab27">
   <rect x="282.62" y="180.18" width="159.46" height="123.46"/>
  </clipPath>
 </defs>
</svg>
